<?xml version="1.0" encoding="UTF-8" standalone="no"?>
<!-- Created with Inkscape (http://www.inkscape.org/) -->

<svg
   width="185.03181mm"
   height="185.03186mm"
   viewBox="0 0 185.03181 185.03186"
   version="1.1"
   id="svg1"
   inkscape:version="1.4.4 (dcaf3e7, 2026-05-05)"
   sodipodi:docname="logo.svg"
   xmlns:inkscape="http://www.inkscape.org/namespaces/inkscape"
   xmlns:sodipodi="http://sodipodi.sourceforge.net/DTD/sodipodi-0.dtd"
   xmlns="http://www.w3.org/2000/svg"
   xmlns:svg="http://www.w3.org/2000/svg">
  <sodipodi:namedview
     id="namedview1"
     pagecolor="#ffffff"
     bordercolor="#000000"
     borderopacity="0.25"
     inkscape:showpageshadow="2"
     inkscape:pageopacity="0.0"
     inkscape:pagecheckerboard="true"
     inkscape:deskcolor="#d1d1d1"
     inkscape:document-units="mm"
     inkscape:zoom="0.37924414"
     inkscape:cx="344.10552"
     inkscape:cy="396.84199"
     inkscape:window-width="1440"
     inkscape:window-height="900"
     inkscape:window-x="0"
     inkscape:window-y="0"
     inkscape:window-maximized="0"
     inkscape:current-layer="layer1"
     inkscape:clip-to-page="true"
     labelstyle="default">
    <inkscape:page
       x="0"
       y="0"
       width="185.03181"
       height="185.03186"
       id="page2"
       margin="0"
       bleed="0" />
  </sodipodi:namedview>
  <defs
     id="defs1" />
  <g
     inkscape:label="Layer 1"
     inkscape:groupmode="layer"
     id="layer1"
     transform="translate(-14.57619,-56.192218)">
    <path
       id="path1"
       d="m 107.0921,56.192219 c 51.09509,0 92.51592,41.42085 92.51592,92.515931 0,51.09508 -41.42083,92.51592 -92.51592,92.51592 -51.095079,0 -92.515909,-41.42084 -92.515909,-92.51592 0,-51.095081 41.42083,-92.515931 92.515909,-92.515931"
       style="fill:#1e5d9f;fill-opacity:1;fill-rule:evenodd;stroke:none;stroke-width:0.153579" />
    <path
       id="path2"
       d="m 107.0921,59.140969 c 49.46656,0 89.56718,40.10062 89.56718,89.567181 0,49.46656 -40.10062,89.56718 -89.56718,89.56718 -49.466549,0 -89.567179,-40.10062 -89.567179,-89.56718 0,-49.466561 40.10063,-89.567181 89.567179,-89.567181"
       style="fill:#ffffff;fill-opacity:1;fill-rule:evenodd;stroke:none;stroke-width:0.153579" />
    <path
       id="path3"
       d="m 107.0921,76.787239 c 39.72078,0 71.92092,32.200121 71.92092,71.920911 0,39.72078 -32.20014,71.92091 -71.92092,71.92091 -39.720769,0 -71.920909,-32.20013 -71.920909,-71.92091 0,-39.72079 32.20014,-71.920911 71.920909,-71.920911 z"
       style="fill:#99def9;fill-opacity:1;fill-rule:evenodd;stroke:#1e5d9f;stroke-width:0.737164;stroke-linecap:butt;stroke-linejoin:miter;stroke-miterlimit:22.9256;stroke-dasharray:none;stroke-opacity:1" />
    <path
       id="path4"
       d="m 105.29893,119.41893 c -2.52538,-1.08491 -4.30583,-1.98315 -6.811789,-2.38794 -4.74909,-0.76725 -9.45396,-0.46777 -13.95313,1.65303 -5.77311,2.72125 -8.64162,5.34631 -11.47037,11.19011 -2.99908,6.19571 -3.26633,14.52601 0.32615,20.97306 l 2.475,3.75161 1.39519,-1.20329 c 2.63146,-2.55506 1.34633,-0.96411 1.72865,-3.29449 0.005,-0.0292 0.0221,-0.0944 0.0196,-0.14222 -0.21479,-0.48402 -2.76325,-1.40036 -3.53428,-6.96839 -0.25081,-1.81093 -0.44605,-5.31564 0.32002,-7.05697 1.85047,4.8857 4.88571,10.85737 9.65296,14.95663 l 0.40852,0.36348 c 0.21332,-0.99258 -0.9837,-2.55181 -0.0325,-7.25014 0.48502,-2.39569 1.73584,-5.0646 3.82457,-7.35767 4.10031,-4.50126 11.015709,-6.09252 14.862119,-4.72049 0.63287,-0.30418 0.54004,0.11406 0.57583,-0.52711 -8.082689,-6.39364 -4.18503,-4.8935 -14.711499,-9.70912 2.04194,-0.5838 4.95302,-0.52564 6.98745,-0.15241 4.160169,0.76315 4.421199,1.26801 6.853189,3.71633 2.44401,-1.555 -0.50155,1.71717 3.67742,-2.13657 0.15542,-0.63373 0.35332,-0.65532 0.90538,-1.21386 -0.88439,-1.00777 -2.38654,-1.75947 -3.49845,-2.48358"
       style="fill:#234a90;fill-opacity:1;fill-rule:evenodd;stroke:none;stroke-width:0.153579" />
    <path
       id="path5"
       d="m 133.04653,147.77622 c -0.51938,0.92979 -1.47243,1.74054 -2.30192,2.56446 0.45994,0.95923 0.27739,0.56616 0.22511,0.89471 -0.10905,0.68537 -0.41561,-0.037 -0.14706,0.91478 1.44672,1.45648 2.08812,1.7223 2.68492,3.44743 1.03095,2.98014 1.59824,7.40133 0.53993,10.37585 -0.58668,-1.26316 -0.94793,-2.51154 -1.58039,-3.81986 -1.90897,-3.94882 -4.82511,-7.98181 -8.06513,-11.06477 l -0.35559,-0.47401 -0.0451,1.04747 c 0.11136,0.40334 0.18174,0.37696 0.26911,0.98009 0.0781,0.53891 0.0741,1.37668 0.0747,1.9496 10e-4,1.25887 -0.13905,2.43838 -0.4252,3.76438 -1.20612,5.5888 -6.30936,10.6451 -11.93977,11.72693 -5.14408,0.98845 -6.08873,-0.15092 -7.50529,-0.0581 l 0.39098,0.46317 c 2.21128,2.33482 4.80453,4.4094 7.37103,6.09477 3.59236,2.35889 4.62268,2.2542 7.42863,3.65212 -2.44148,1.09115 -7.59353,0.3686 -10.37619,-0.62031 -1.726,-0.6134 -2.01442,-1.23228 -3.43559,-2.66304 -0.93942,-0.24695 -0.24493,0.0781 -0.88418,0.14942 -0.46685,0.0522 0.18019,0.12961 -0.41187,-0.01 -0.005,-0.001 -0.43887,-0.23121 -0.48837,-0.25407 -0.70759,0.7029 -1.61551,1.91693 -2.48767,2.19543 -0.0427,0.1474 -0.01,0.20378 -0.20109,0.47683 -0.10609,0.15149 -0.24435,0.27277 -0.37412,0.40278 0.97016,1.07245 2.55022,1.79796 3.70518,2.60603 2.51802,1.07112 4.2559,1.92852 6.80004,2.32738 4.67522,0.73294 9.34034,0.42489 13.80877,-1.67899 1.63131,-0.76811 5.59079,-3.11473 6.96913,-4.46372 1.29318,-1.26563 3.75237,-5.22001 4.50187,-6.777 2.1484,-4.46313 2.72636,-9.21771 1.94915,-13.93486 -0.18754,-1.1382 -0.46734,-2.33979 -0.87242,-3.49379 -0.42639,-1.21469 -0.99019,-2.32181 -1.43947,-3.49108 -0.83101,-1.15258 -1.45599,-2.69625 -2.58479,-3.71125 -0.53839,0.52297 -0.27601,0.4205 -0.79736,0.48106"
       style="fill:#fbc707;fill-opacity:1;fill-rule:evenodd;stroke:none;stroke-width:0.153579" />
    <path
       id="path6"
       d="m 77.259981,153.39551 -1.39519,1.20329 -2.475,-3.75161 c -1.99748,5.04396 -3.14987,7.80416 -2.50321,13.60626 0.51222,4.59607 3.07686,10.3151 6.26695,13.75309 1.30049,1.40155 5.25897,3.84641 6.88725,4.63734 5.89609,2.86399 14.88627,3.26598 20.670829,-0.32541 -1.15496,-0.80808 -2.73502,-1.53358 -3.70518,-2.60604 0.12977,-0.13 0.26803,-0.25128 0.37412,-0.40277 0.1912,-0.27305 0.15838,-0.32943 0.20109,-0.47683 -3.080599,1.6115 -8.894589,1.98506 -11.490799,1.05007 0.71992,-0.45932 2.63608,-1.03436 3.72469,-1.56261 4.7189,-2.28972 7.145919,-4.49189 11.050319,-8.03191 l -0.39098,-0.46317 c -1.95807,0.57713 -5.138459,0.39381 -7.278039,-0.2043 -2.45201,-0.68558 -5.00154,-2.04759 -7.10777,-4.18586 -4.33531,-4.40126 -5.17821,-10.27087 -4.23366,-14.3815 l -0.40852,-0.36348 c -2.4118,2.46091 -4.30044,4.72317 -6.09904,7.46455 -2.3471,3.57725 -2.19125,4.35494 -3.60504,7.3632 -1.07041,-3.0966 -0.29951,-10.04234 1.51718,-12.32231"
       style="fill:#00a650;fill-opacity:1;fill-rule:evenodd;stroke:none;stroke-width:0.153579" />
    <path
       id="path7"
       d="m 105.29893,119.41893 c 1.11191,0.72411 2.61406,1.47581 3.49845,2.48358 -0.55206,0.55854 -0.74996,0.58013 -0.90538,1.21386 3.15763,-1.59988 9.14543,-2.34335 11.9429,-1.17655 -6.42159,2.79415 -9.15366,3.95725 -14.74946,9.45832 -0.0358,0.64117 0.057,0.22293 -0.57583,0.52711 0.90404,0.30387 8.04103,-2.21332 14.70462,3.94629 2.47863,2.29115 3.69087,4.70878 4.49995,7.41555 0.96995,3.245 0.51497,4.69778 0.33222,7.32772 l 0.35559,0.47401 c 3.60188,-4.06505 5.63393,-6.06492 8.0697,-10.97666 0.60447,-1.21905 1.05679,-2.84432 1.59627,-3.76402 1.10755,2.46177 0.36652,8.42943 -1.02143,11.42808 0.52135,-0.0606 0.25897,0.0419 0.79736,-0.48106 1.1288,1.015 1.75378,2.55867 2.58479,3.71125 2.60148,-4.29762 2.8717,-10.1191 2.45903,-13.66059 -0.52228,-4.48268 -3.24434,-10.4217 -6.34706,-13.64971 -1.29035,-1.34241 -5.09102,-3.65447 -6.72672,-4.46225 -5.80889,-2.86868 -14.85782,-3.34129 -20.515,0.18507"
       style="fill:#ed1c24;fill-opacity:1;fill-rule:evenodd;stroke:none;stroke-width:0.153579" />
    <path
       id="path8"
       d="m 75.719831,107.72064 c -5.07182,-3.0817 -10.94755,-1.67614 -13.72127,2.71915 -2.54531,4.03336 -2.47932,10.59147 2.86638,13.95322 3.95642,2.48802 10.41009,2.37026 13.6419,-2.86024 3.01656,-4.88222 1.61485,-11.13752 -2.78701,-13.81213"
       style="fill:#234a90;fill-opacity:1;fill-rule:evenodd;stroke:none;stroke-width:0.153579" />
    <path
       id="path9"
       d="m 75.787081,177.50433 c -4.12834,-2.72444 -10.50748,-2.68357 -13.92088,2.54533 -2.61822,4.01075 -2.45872,10.41685 2.61215,13.77293 4.05407,2.6831 10.26731,2.52421 13.74873,-2.56517 2.6582,-3.88599 2.57357,-10.44449 -2.44,-13.75309"
       style="fill:#00a650;fill-opacity:1;fill-rule:evenodd;stroke:none;stroke-width:0.153579" />
    <path
       id="path10"
       d="m 145.874,108.63812 c -4.11094,-3.06972 -10.37716,-3.07067 -14.04427,1.78617 -2.94808,3.9045 -2.81474,10.40537 1.91481,13.90495 4.00867,2.96619 10.29823,2.82306 13.86202,-1.88661 2.97673,-3.93378 2.92353,-10.32765 -1.73256,-13.80451"
       style="fill:#ed1c24;fill-opacity:1;fill-rule:evenodd;stroke:none;stroke-width:0.153579" />
    <path
       id="path11"
       d="m 145.75222,178.14786 c -2.3783,-1.75713 -4.98483,-2.369 -7.01426,-2.0805 -10.37528,1.47484 -11.36416,12.90627 -5.35109,17.59525 3.9795,3.10319 10.38777,3.0214 14.00502,-1.6345 2.96047,-3.81053 2.99498,-10.45624 -1.63967,-13.88025"
       style="fill:#fbc707;fill-opacity:1;fill-rule:evenodd;stroke:none;stroke-width:0.153579" />
    <path
       id="path12"
       d="m 72.472271,217.9746 1.55512,0.70299 -0.10666,1.88974 2.83046,1.27933 1.31299,-1.34555 1.51694,0.68514 -5.96056,5.83806 -1.51151,-0.6834 z m 1.3674,3.99331 -0.21088,3.06955 2.14388,-2.19704 z"
       style="fill:#ed1c24;fill-opacity:1;fill-rule:nonzero;stroke:none;stroke-width:0.153579" />
    <path
       id="path13"
       d="m 70.036701,219.49299 -1.40097,-0.62398 c 0.17343,-0.49159 0.19512,-0.91003 0.0704,-1.25721 -0.12652,-0.34893 -0.39769,-0.6394 -0.8117,-0.87474 -0.43939,-0.24975 -0.82384,-0.344 -1.15313,-0.28458 -0.3276,0.0594 -0.56234,0.21444 -0.7043,0.46321 -0.0898,0.15972 -0.11985,0.32288 -0.0902,0.48758 0.0298,0.16651 0.13926,0.35615 0.32499,0.57085 0.1292,0.1461 0.43851,0.45085 0.92597,0.91588 0.62932,0.5948 1.01556,1.10929 1.16244,1.54146 0.20375,0.6076 0.15376,1.17833 -0.14988,1.71399 -0.19408,0.34317 -0.47536,0.61069 -0.84038,0.79884 -0.365,0.19002 -0.77584,0.2589 -1.23063,0.20658 -0.45664,-0.0505 -0.9446,-0.22395 -1.46571,-0.51863 -0.84796,-0.4797 -1.38112,-1.02788 -1.59936,-1.64455 -0.21832,-0.61479 -0.16138,-1.23807 0.16905,-1.87162 l 1.39958,0.7127 c -0.13957,0.38102 -0.15625,0.70164 -0.05,0.96376 0.10617,0.26033 0.35176,0.50008 0.73489,0.71748 0.3977,0.22464 0.75489,0.31902 1.07165,0.28499 0.20274,-0.0245 0.35446,-0.12294 0.45327,-0.29722 0.0916,-0.15982 0.1017,-0.33556 0.0302,-0.52541 -0.0899,-0.24228 -0.42298,-0.63015 -0.99772,-1.16367 -0.57469,-0.53352 -0.97517,-0.9736 -1.19767,-1.32218 -0.22433,-0.3467 -0.3437,-0.71744 -0.35815,-1.11037 -0.0145,-0.39299 0.0978,-0.80277 0.34035,-1.22949 0.21923,-0.38856 0.53303,-0.68881 0.93955,-0.90618 0.40652,-0.21553 0.85353,-0.29542 1.34094,-0.23603 0.48745,0.0594 1.02445,0.25437 1.61094,0.58679 0.85523,0.48519 1.39931,1.05501 1.63409,1.70959 0.23296,0.65454 0.1819,1.38469 -0.15859,2.19216"
       style="fill:#ed1c24;fill-opacity:1;fill-rule:nonzero;stroke:none;stroke-width:0.153579" />
    <path
       id="path14"
       d="m 62.771341,215.18833 -1.32702,-0.77146 c 0.22346,-0.46969 0.29272,-0.88409 0.20409,-1.24316 -0.0868,-0.35904 -0.32589,-0.67914 -0.71383,-0.95833 -0.40957,-0.29381 -0.78187,-0.42981 -1.11526,-0.4063 -0.33339,0.0254 -0.58222,0.15268 -0.7501,0.38536 -0.10765,0.14976 -0.15563,0.30888 -0.14199,0.47558 0.0118,0.16852 0.0994,0.37003 0.26116,0.60451 0.11322,0.15821 0.38671,0.49473 0.82218,1.00965 0.56337,0.66045 0.89179,1.21281 0.99083,1.65886 0.13788,0.62559 0.028,1.18827 -0.33155,1.68799 -0.23168,0.32116 -0.53904,0.55677 -0.92198,0.705 -0.38483,0.15006 -0.79971,0.17496 -1.24828,0.0748 -0.44862,-0.10027 -0.91653,-0.32555 -1.40181,-0.67408 -0.79198,-0.57118 -1.26323,-1.17321 -1.41377,-1.80789 -0.15232,-0.63655 -0.0295,-1.2517 0.36856,-1.84537 l 1.31569,0.8601 c -0.17948,0.3649 -0.23012,0.68162 -0.15367,0.95184 0.0782,0.27212 0.29593,0.5359 0.65492,0.79501 0.37165,0.26648 0.7151,0.39869 1.03385,0.39682 0.20649,-8.7e-4 0.36808,-0.0831 0.48488,-0.24554 0.1077,-0.14975 0.13579,-0.32345 0.0861,-0.52114 -0.0638,-0.25027 -0.35309,-0.67204 -0.86794,-1.2634 -0.51479,-0.5932 -0.86537,-1.07326 -1.04991,-1.44374 -0.18454,-0.37043 -0.26395,-0.75121 -0.23648,-1.14407 0.0275,-0.39285 0.18355,-0.78867 0.47187,-1.18734 0.25912,-0.36087 0.60286,-0.62886 1.03124,-0.79855 0.42829,-0.17161 0.88127,-0.20357 1.35884,-0.0923 0.4793,0.11123 0.99231,0.3639 1.54074,0.75811 0.79748,0.57299 1.27944,1.19862 1.44065,1.87506 0.16295,0.67639 0.0323,1.39836 -0.39202,2.16399"
       style="fill:#ed1c24;fill-opacity:1;fill-rule:nonzero;stroke:none;stroke-width:0.153579" />
    <path
       id="path15"
       d="m 54.899221,211.04461 c -0.54953,0.57175 -1.09592,0.96781 -1.64097,1.19006 -0.40147,0.16178 -0.82237,0.25088 -1.26076,0.26564 -0.43842,0.0148 -0.84181,-0.0499 -1.20842,-0.19399 -0.49115,-0.18845 -0.96511,-0.50181 -1.4199,-0.94177 -0.82529,-0.79419 -1.23864,-1.6866 -1.24012,-2.67551 -0.003,-0.98893 0.43503,-1.93824 1.31316,-2.84975 0.87082,-0.90438 1.79809,-1.37359 2.78184,-1.41139 0.9819,-0.0359 1.88642,0.34044 2.70808,1.13282 0.83237,0.80324 1.24943,1.69395 1.25092,2.67555 0.003,0.98169 -0.42577,1.91839 -1.28383,2.80834 z m -1.20158,-1.0832 c 0.60983,-0.6347 0.92605,-1.25526 0.94887,-1.86545 0.0228,-0.60838 -0.19059,-1.1298 -0.64192,-1.56435 -0.45123,-0.43448 -0.97682,-0.62868 -1.57846,-0.58257 -0.60168,0.0461 -1.21469,0.39459 -1.84088,1.04364 -0.61884,0.64 -0.93869,1.25517 -0.96132,1.8418 -0.0226,0.58667 0.19804,1.10455 0.66367,1.5536 0.46564,0.4491 0.99659,0.65062 1.58917,0.60625 0.59259,-0.0444 1.20019,-0.38927 1.82087,-1.03292"
       style="fill:#ed1c24;fill-opacity:1;fill-rule:nonzero;stroke:none;stroke-width:0.153579" />
    <path
       id="path16"
       d="m 45.153711,199.64059 -0.61914,-1.47376 c 0.79698,-0.37083 1.52921,-0.4849 2.19498,-0.3384 0.66573,0.14646 1.26868,0.53709 1.8088,1.17195 0.66973,0.78757 0.95144,1.662 0.84513,2.62492 -0.1063,0.96486 -0.62511,1.84241 -1.55647,2.6364 -0.98587,0.83894 -1.96775,1.23602 -2.9473,1.19122 -0.97778,-0.0448 -1.81956,-0.48197 -2.52713,-1.31143 -0.61569,-0.72397 -0.90341,-1.49513 -0.85939,-2.3117 0.0224,-0.48528 0.21513,-0.99685 0.57469,-1.53476 l 1.29014,0.94292 c -0.24802,0.33199 -0.36569,0.68453 -0.35491,1.05769 0.0126,0.37314 0.1539,0.71979 0.42399,1.03629 0.37266,0.44022 0.83338,0.66168 1.38211,0.66629 0.54693,0.005 1.17513,-0.29285 1.87903,-0.8924 0.74945,-0.63734 1.1672,-1.22745 1.25684,-1.76671 0.0879,-0.53925 -0.0509,-1.02536 -0.4182,-1.45644 -0.27003,-0.31652 -0.60416,-0.50472 -1.0005,-0.5611 -0.39637,-0.0582 -0.8551,0.0482 -1.37267,0.31902"
       style="fill:#ed1c24;fill-opacity:1;fill-rule:nonzero;stroke:none;stroke-width:0.153579" />
    <path
       id="path17"
       d="m 45.009871,194.84412 -6.36652,4.46775 -0.90156,-1.28488 6.36474,-4.46777 z"
       style="fill:#ed1c24;fill-opacity:1;fill-rule:nonzero;stroke:none;stroke-width:0.153579" />
    <path
       id="path18"
       d="m 38.932771,185.67596 0.92514,1.43576 -1.11609,1.52691 1.68399,2.61053 1.83166,-0.41746 0.90163,1.39955 -8.17236,1.66841 -0.89985,-1.3959 z m -1.01854,4.09518 -1.84379,2.46398 2.99293,-0.68196 z"
       style="fill:#ed1c24;fill-opacity:1;fill-rule:nonzero;stroke:none;stroke-width:0.153579" />
    <path
       id="path19"
       d="m 33.499091,180.73336 -0.19513,-1.58369 c 0.87043,-0.14232 1.60441,-0.0521 2.20563,0.27065 0.59941,0.32276 1.07324,0.86171 1.42143,1.62052 0.42885,0.93946 0.46276,1.8575 0.0982,2.75602 -0.36464,0.89667 -1.10337,1.60153 -2.21628,2.111 -1.17617,0.53888 -2.22782,0.65318 -3.15858,0.3431 -0.92897,-0.30831 -1.62069,-0.9584 -2.07339,-1.94846 -0.39587,-0.86542 -0.46186,-1.68369 -0.198,-2.45846 0.1551,-0.45906 0.47874,-0.89907 0.9709,-1.32013 l 0.98478,1.25888 c -0.32825,0.25172 -0.53847,0.55889 -0.62894,0.91983 -0.0904,0.36268 -0.0485,0.73377 0.12372,1.11317 0.24014,0.52389 0.62412,0.86236 1.14836,1.01709 0.52602,0.15472 1.21003,0.0388 2.05193,-0.34793 0.89428,-0.4087 1.45691,-0.86089 1.68969,-1.35661 0.23095,-0.49567 0.23003,-0.99915 -0.006,-1.51402 -0.17409,-0.37945 -0.44361,-0.64963 -0.81034,-0.81248 -0.3649,-0.16287 -0.83407,-0.18568 -1.4076,-0.0685 z m 5.91647,0.91891 -0.56907,0.26025 c -0.11603,-0.3471 -0.23722,-0.65976 -0.36369,-0.9362 -0.13196,-0.28546 -0.27967,-0.47479 -0.44675,-0.56446 -0.12538,-0.0718 -0.24854,-0.0784 -0.3714,-0.0233 -0.11022,0.0513 -0.18219,0.14406 -0.21589,0.28007 -0.0355,0.13604 -0.004,0.3097 0.0916,0.51931 0.0935,0.20414 0.2231,0.40087 0.38531,0.58654 l -0.53376,0.0934 c -0.20219,-0.21085 -0.37014,-0.46165 -0.50213,-0.75072 -0.18323,-0.40108 -0.23583,-0.74674 -0.15411,-1.03698 0.0818,-0.2902 0.2491,-0.49393 0.50203,-0.6094 0.28368,-0.13015 0.56625,-0.11897 0.84957,0.0317 0.38324,0.20077 0.70774,0.59202 0.97535,1.17378 0.18876,0.41552 0.30826,0.7409 0.35297,0.97607"
       style="fill:#ed1c24;fill-opacity:1;fill-rule:nonzero;stroke:none;stroke-width:0.153579" />
    <path
       id="path20"
       d="m 32.500291,169.35579 0.51674,1.62791 -1.47767,1.18369 0.94204,2.9622 1.87788,0.0761 0.50422,1.58804 -8.32952,-0.53172 -0.50244,-1.58265 z m -2.05747,3.68857 -2.42524,1.89451 3.06758,0.12677 z m -4.19656,3.73479 0.2064,0.64713 c -0.0762,0.0269 -0.13601,0.0485 -0.18133,0.0629 -0.3535,0.11302 -0.65231,0.1121 -0.89829,8.7e-4 -0.24417,-0.11118 -0.41022,-0.30186 -0.49636,-0.57016 -0.0359,-0.11964 -0.0591,-0.23195 -0.066,-0.34248 -0.007,-0.10866 0.006,-0.3151 0.0417,-0.62106 0.0335,-0.30601 0.0269,-0.53604 -0.0215,-0.6865 -0.0341,-0.10875 -0.0954,-0.18863 -0.18582,-0.23964 -0.0904,-0.051 -0.21902,-0.0604 -0.38387,-0.0319 l -0.20815,-0.65625 c 0.45503,-0.14173 0.80826,-0.15877 1.05601,-0.0548 0.24968,0.10398 0.41576,0.28921 0.49826,0.55207 0.0377,0.11423 0.0609,0.23016 0.0732,0.34975 0.003,0.0833 -0.003,0.29882 -0.0236,0.64649 -0.0192,0.3477 -0.005,0.59223 0.0395,0.73363 0.0341,0.10875 0.0936,0.18136 0.17863,0.2215 0.085,0.0401 0.20817,0.0368 0.3713,-0.0116"
       style="fill:#ed1c24;fill-opacity:1;fill-rule:nonzero;stroke:none;stroke-width:0.153579" />
    <path
       id="path21"
       d="m 28.403891,168.81535 c -0.7715,0.17745 -1.44524,0.21002 -2.02298,0.0995 -0.42563,-0.0851 -0.82589,-0.24089 -1.20076,-0.46735 -0.37483,-0.22821 -0.67552,-0.50352 -0.90547,-0.82405 -0.30788,-0.42569 -0.53243,-0.94731 -0.67365,-1.56485 -0.25529,-1.11569 -0.11396,-2.08824 0.4258,-2.9177 0.53796,-0.82762 1.42545,-1.38355 2.657,-1.66604 1.22429,-0.28064 2.25662,-0.16648 3.10058,0.3407 0.84212,0.50716 1.39083,1.31677 1.64611,2.4288 0.25895,1.12653 0.11942,2.10088 -0.41493,2.92311 -0.53611,0.82219 -1.40549,1.37268 -2.6117,1.64789 z m -0.41283,-1.56478 c 0.8585,-0.19556 1.46345,-0.54323 1.81481,-1.03952 0.35137,-0.49798 0.45828,-1.05217 0.31884,-1.66252 -0.13943,-0.60857 -0.47443,-1.05949 -1.00328,-1.34934 -0.52877,-0.29163 -1.23153,-0.33513 -2.10988,-0.13417 -0.86938,0.19916 -1.47246,0.53781 -1.81299,1.01595 -0.34053,0.47809 -0.43834,1.03224 -0.2935,1.66253 0.14484,0.63211 0.47622,1.09031 0.99785,1.37651 0.51971,0.28802 1.21699,0.33151 2.08815,0.13056"
       style="fill:#ed1c24;fill-opacity:1;fill-rule:nonzero;stroke:none;stroke-width:0.153579" />
    <path
       id="path22"
       d="m 22.109941,155.56718 -0.0448,-2.867 c -0.0108,-0.64656 0.031,-1.14098 0.12521,-1.48146 0.12691,-0.45816 0.35876,-0.85296 0.69751,-1.18251 0.33691,-0.3314 0.75349,-0.58485 1.24798,-0.76225 0.49264,-0.1774 1.10482,-0.27152 1.83106,-0.28223 0.64112,-0.0108 1.19348,0.06 1.65895,0.21214 0.56865,0.18667 1.03042,0.45664 1.38535,0.81165 0.26978,0.26809 0.48161,0.63216 0.6373,1.09219 0.11401,0.34414 0.17735,0.80781 0.18632,1.38734 l 0.0447,2.95209 z m 1.28975,-1.58996 5.14717,-0.0787 -0.0179,-1.17181 c -0.007,-0.43831 -0.0379,-0.75341 -0.0904,-0.94723 -0.067,-0.25357 -0.17741,-0.46364 -0.33312,-0.62849 -0.15394,-0.16487 -0.40565,-0.29891 -0.75515,-0.3986 -0.34953,-0.10144 -0.82589,-0.14685 -1.42713,-0.13788 -0.59951,0.009 -1.05954,0.0704 -1.38008,0.18089 -0.32059,0.1104 -0.56873,0.26251 -0.74627,0.45623 -0.17752,0.19377 -0.29528,0.43827 -0.35327,0.73163 -0.0472,0.22094 -0.0653,0.6502 -0.0546,1.2895 z"
       style="fill:#ed1c24;fill-opacity:1;fill-rule:nonzero;stroke:none;stroke-width:0.153579" />
    <path
       id="path23"
       d="m 29.687891,146.66504 -7.74237,-0.64187 0.47605,-5.74206 1.30877,0.10918 -0.3454,4.17806 1.7161,0.1424 0.32195,-3.88843 1.30519,0.10919 -0.32193,3.88659 2.1071,0.1755 0.35893,-4.32647 1.30525,0.10918 z"
       style="fill:#ed1c24;fill-opacity:1;fill-rule:nonzero;stroke:none;stroke-width:0.153579" />
    <path
       id="path24"
       d="m 30.882821,135.54351 -7.67055,-1.26281 0.4087,-2.48553 c 0.15547,-0.9409 0.29481,-1.5485 0.41811,-1.82269 0.18767,-0.41955 0.49899,-0.74744 0.93401,-0.98012 0.43331,-0.23261 0.95628,-0.29918 1.56545,-0.19783 0.47139,0.0768 0.85267,0.22842 1.14556,0.45123 0.29298,0.22459 0.51005,0.48227 0.64948,0.77665 0.13945,0.29255 0.21729,0.58005 0.23165,0.8625 0.0114,0.38206 -0.0397,0.9221 -0.15493,1.62374 l -0.16591,1.00978 2.89167,0.47686 z m -6.11747,-2.59799 2.17554,0.35807 0.13974,-0.84666 c 0.10131,-0.61096 0.12777,-1.02583 0.0812,-1.24473 -0.0466,-0.21888 -0.14549,-0.40116 -0.29669,-0.54513 -0.15124,-0.14581 -0.34013,-0.23705 -0.56854,-0.27371 -0.27741,-0.0454 -0.52164,-0.002 -0.7309,0.13127 -0.20744,0.13525 -0.35486,0.32276 -0.44209,0.56772 -0.066,0.17793 -0.1434,0.54784 -0.23601,1.10446 z"
       style="fill:#ed1c24;fill-opacity:1;fill-rule:nonzero;stroke:none;stroke-width:0.153579" />
    <path
       id="path25"
       d="m 34.563371,121.66969 -0.5662,1.60989 -1.89048,0.0567 -1.03102,2.93121 1.4543,1.19022 -0.55196,1.57176 -6.33192,-5.43319 0.55018,-1.56637 z m -3.86008,1.70762 -3.07683,0.0548 2.37349,1.94532 z"
       style="fill:#ed1c24;fill-opacity:1;fill-rule:nonzero;stroke:none;stroke-width:0.153579" />
    <path
       id="path26"
       d="m 35.229971,120.08901 -7.24426,-2.80778 0.56699,-1.46262 7.24429,2.80599 z"
       style="fill:#ed1c24;fill-opacity:1;fill-rule:nonzero;stroke:none;stroke-width:0.153579" />
    <path
       id="path27"
       d="m 34.302381,115.58875 0.56425,-1.42822 c 0.4993,0.15162 0.91952,0.15724 1.26067,0.0168 0.343,-0.14048 0.62319,-0.42354 0.84069,-0.84731 0.22993,-0.45105 0.31004,-0.8375 0.2349,-1.16472 -0.0733,-0.32537 -0.23639,-0.55405 -0.49103,-0.68417 -0.16368,-0.0838 -0.32867,-0.1078 -0.49319,-0.0702 -0.16268,0.0376 -0.34828,0.15324 -0.55676,0.34875 -0.14018,0.13513 -0.43277,0.45633 -0.87596,0.96529 -0.56871,0.65304 -1.06706,1.06284 -1.49134,1.22574 -0.59942,0.22951 -1.17197,0.20343 -1.71942,-0.0764 -0.35285,-0.18001 -0.63216,-0.4494 -0.83612,-0.80629 -0.20401,-0.35698 -0.29063,-0.76555 -0.25821,-1.22406 0.0324,-0.45849 0.18416,-0.95235 0.45685,-1.48529 0.44566,-0.86759 0.97177,-1.4243 1.57651,-1.66835 0.60651,-0.2441 1.23162,-0.21482 1.87889,0.0896 l -0.65475,1.42897 c -0.38497,-0.12182 -0.7074,-0.1246 -0.9636,-0.008 -0.25623,0.1162 -0.48597,0.37166 -0.6874,0.76634 -0.20853,0.40556 -0.2871,0.76664 -0.23922,1.08138 0.0324,0.20262 0.13687,0.35029 0.31698,0.44119 0.16368,0.0837 0.33939,0.0877 0.52711,0.008 0.23821,-0.10156 0.61209,-0.45059 1.11974,-1.04699 0.50944,-0.5983 0.93345,-1.01653 1.27199,-1.25291 0.33856,-0.23824 0.70328,-0.37349 1.09422,-0.40567 0.39277,-0.0304 0.80647,0.0658 1.24481,0.28859 0.39651,0.20322 0.71054,0.50492 0.94382,0.90142 0.2333,0.39838 0.33113,0.8413 0.29348,1.33062 -0.0376,0.48933 -0.21067,1.03408 -0.51902,1.63611 -0.44924,0.87486 -0.9951,1.44264 -1.63953,1.70514 -0.6445,0.26068 -1.37817,0.23958 -2.19936,-0.0652"
       style="fill:#ed1c24;fill-opacity:1;fill-rule:nonzero;stroke:none;stroke-width:0.153579" />
    <path
       id="path28"
       d="m 42.153211,106.59316 -6.31626,-4.53839 3.36681,-4.683501 1.06808,0.76825 -2.44897,3.407991 1.40001,1.00547 2.27923,-3.169831 1.06445,0.764601 -2.27923,3.16985 1.7175,1.23542 2.53653,-3.52705 1.06445,0.76458 z"
       style="fill:#ed1c24;fill-opacity:1;fill-rule:nonzero;stroke:none;stroke-width:0.153579" />
    <path
       id="path29"
       d="m 48.914411,97.709149 -5.59867,-5.3948 1.63027,-1.69182 4.79908,2.66471 -2.85115,-4.68375 1.63397,-1.69539 5.59688,5.39297 -1.01143,1.04995 -4.40661,-4.24641 3.33677,5.35937 -1.0497,1.08769 -5.47469,-3.13898 4.40845,4.2465 z"
       style="fill:#ed1c24;fill-opacity:1;fill-rule:nonzero;stroke:none;stroke-width:0.153579" />
    <path
       id="path30"
       d="m 55.914921,90.561139 -4.79704,-6.12208 4.5391,-3.55792 0.81282,1.03665 -3.3035,2.58906 1.0632,1.35682 3.07377,-2.40941 0.80733,1.03304 -3.07373,2.40761 1.30633,1.66617 3.42109,-2.67978 0.80735,1.03124 z"
       style="fill:#ed1c24;fill-opacity:1;fill-rule:nonzero;stroke:none;stroke-width:0.153579" />
    <path
       id="path31"
       d="m 60.668151,83.640769 1.20403,-0.95265 c 0.35441,0.38088 0.71448,0.59689 1.08204,0.64638 0.36578,0.0495 0.74992,-0.055 1.15056,-0.31344 0.42598,-0.27461 0.68727,-0.56947 0.78731,-0.88805 0.0983,-0.31863 0.0715,-0.59937 -0.0838,-0.84048 -0.0994,-0.15405 -0.2296,-0.2557 -0.39072,-0.30665 -0.16116,-0.0491 -0.37845,-0.0422 -0.6575,0.0244 -0.18841,0.045 -0.60151,0.17837 -1.23937,0.39473 -0.81905,0.28137 -1.45486,0.38541 -1.90576,0.3141 -0.63193,-0.10056 -1.11504,-0.40918 -1.44746,-0.92761 -0.21506,-0.33173 -0.32132,-0.70321 -0.31889,-1.11431 6.1e-4,-0.41296 0.13157,-0.80756 0.38754,-1.18752 0.25772,-0.38172 0.63678,-0.73255 1.13894,-1.0578 0.82119,-0.52759 1.55326,-0.74566 2.19969,-0.65414 0.6464,0.0933 1.1729,0.43281 1.58134,1.0184 l -1.28181,0.90907 c -0.273,-0.29921 -0.54989,-0.46264 -0.83056,-0.49019 -0.28069,-0.0276 -0.60686,0.0787 -0.97846,0.31723 -0.38249,0.24754 -0.63107,0.52067 -0.74739,0.81749 -0.0745,0.19007 -0.0567,0.37121 0.0517,0.53981 0.10117,0.1559 0.25136,0.24488 0.45236,0.27053 0.25711,0.033 0.75532,-0.0822 1.49471,-0.34549 0.7393,-0.26151 1.31364,-0.41096 1.72661,-0.44658 0.41118,-0.0374 0.79502,0.0302 1.14974,0.19735 0.35475,0.16896 0.66581,0.46103 0.93141,0.87256 0.24035,0.37521 0.36286,0.79196 0.36581,1.25382 0.003,0.46003 -0.13538,0.89268 -0.41306,1.29614 -0.27774,0.40522 -0.70033,0.79041 -1.26771,1.15541 -0.82484,0.53298 -1.58225,0.75104 -2.27209,0.654 -0.6881,-0.0952 -1.3106,-0.48192 -1.86918,-1.15648"
       style="fill:#ed1c24;fill-opacity:1;fill-rule:nonzero;stroke:none;stroke-width:0.153579" />
    <path
       id="path32"
       d="m 70.853451,80.406919 -3.00051,-5.72099 -2.04171,1.07112 -0.61135,-1.16419 5.47077,-2.86882 0.6113,1.16597 -2.03817,1.06751 2.99862,5.72095 z"
       style="fill:#ed1c24;fill-opacity:1;fill-rule:nonzero;stroke:none;stroke-width:0.153579" />
    <path
       id="path33"
       d="m 76.051301,77.795309 -2.91362,-7.20943 3.06415,-1.23937 c 0.76968,-0.30984 1.35649,-0.47296 1.75848,-0.48389 0.40026,-0.0109 0.77338,0.10492 1.11757,0.35294 0.34413,0.24627 0.60138,0.58126 0.77351,1.00869 0.21923,0.53964 0.24104,1.05216 0.0655,1.53213 -0.17557,0.48179 -0.56124,0.89481 -1.15705,1.24264 0.38942,0.0561 0.7299,0.15385 1.02331,0.28958 0.29348,0.13758 0.72817,0.41642 1.30237,0.83647 l 1.44909,1.05017 -1.74215,0.70487 -1.68639,-1.14429 c -0.59951,-0.40922 -0.99802,-0.65906 -1.19544,-0.74957 -0.1956,-0.0905 -0.38215,-0.13034 -0.55964,-0.12308 -0.17567,0.009 -0.43104,0.0798 -0.76424,0.21567 l -0.29521,0.1196 1.21582,3.00985 z m -0.22543,-4.74862 1.07747,-0.43486 c 0.69724,-0.28266 1.12284,-0.48924 1.27134,-0.61783 0.15028,-0.12866 0.24622,-0.28624 0.28601,-0.46913 0.0398,-0.18481 0.0163,-0.3858 -0.0707,-0.6013 -0.0997,-0.24266 -0.24275,-0.41291 -0.43295,-0.50882 -0.19015,-0.0978 -0.41113,-0.11763 -0.66285,-0.0615 -0.12498,0.0308 -0.4817,0.16668 -1.07207,0.40408 l -1.1355,0.46025 z"
       style="fill:#ed1c24;fill-opacity:1;fill-rule:nonzero;stroke:none;stroke-width:0.153579" />
    <path
       id="path34"
       d="m 84.279821,74.786889 -2.1724,-7.4622 5.53284,-1.61193 0.36695,1.26331 -4.02521,1.17199 0.48196,1.6542 3.74647,-1.08983 0.36507,1.25605 -3.74642,1.09171 0.59146,2.03068 4.16818,-1.21399 0.3669,1.25788 z"
       style="fill:#ed1c24;fill-opacity:1;fill-rule:nonzero;stroke:none;stroke-width:0.153579" />
    <path
       id="path35"
       d="m 91.404101,70.368949 1.48206,-0.39124 c 0.1727,0.49007 0.41872,0.83207 0.73456,1.02414 0.31575,0.19208 0.70839,0.25062 1.17977,0.17379 0.49857,-0.0821 0.85637,-0.24837 1.07526,-0.50061 0.21884,-0.25224 0.3056,-0.51974 0.25842,-0.80254 -0.0297,-0.18133 -0.10666,-0.32668 -0.2346,-0.43609 -0.12608,-0.10944 -0.33026,-0.19037 -0.61071,-0.24284 -0.19176,-0.0319 -0.62436,-0.0762 -1.29413,-0.13281 -0.8635,-0.0704 -1.48735,-0.2282 -1.87167,-0.47322 -0.53938,-0.34562 -0.85889,-0.822 -0.95845,-1.42757 -0.0628,-0.39159 -0.0115,-0.77522 0.15368,-1.15096 0.16713,-0.37566 0.44431,-0.68731 0.83159,-0.93312 0.38728,-0.24574 0.8773,-0.41666 1.46654,-0.51264 0.96261,-0.15716 1.72089,-0.0638 2.27665,0.28005 0.55575,0.3421 0.90217,0.86397 1.04099,1.56392 l -1.5378,0.32028 c -0.1299,-0.38292 -0.3185,-0.64304 -0.56398,-0.78043 -0.24727,-0.13731 -0.58754,-0.17018 -1.02266,-0.0986 -0.45142,0.0733 -0.7874,0.22341 -1.01156,0.44845 -0.1458,0.1458 -0.20113,0.31754 -0.16974,0.51697 0.0297,0.18128 0.13203,0.32316 0.30708,0.42745 0.22198,0.13174 0.72311,0.22538 1.50515,0.28085 0.78388,0.0555 1.37011,0.14959 1.76236,0.28053 0.3922,0.131 0.71691,0.34487 0.97412,0.64165 0.2572,0.29499 0.42689,0.68541 0.50543,1.17128 0.0716,0.43875 0.0164,0.87126 -0.16543,1.29397 -0.18193,0.42446 -0.48101,0.76499 -0.89554,1.02511 -0.41632,0.25824 -0.95715,0.44147 -1.62431,0.55153 -0.96989,0.15711 -1.74989,0.0546 -2.34356,-0.30949 -0.59181,-0.36216 -1.00834,-0.96602 -1.24952,-1.80784"
       style="fill:#ed1c24;fill-opacity:1;fill-rule:nonzero;stroke:none;stroke-width:0.153579" />
    <path
       id="path36"
       d="m 103.17899,63.675089 2.86699,-0.0442 c 0.64657,-0.0106 1.14094,0.0312 1.48142,0.12551 0.45816,0.12699 0.85289,0.35894 1.18239,0.69777 0.3313,0.33695 0.58466,0.75362 0.76198,1.24812 0.17731,0.49268 0.27127,1.1049 0.28184,1.83113 0.0107,0.64113 -0.0602,1.19345 -0.2125,1.65891 -0.18675,0.56861 -0.45679,1.03029 -0.81191,1.38518 -0.26811,0.26973 -0.63223,0.48148 -1.09231,0.63707 -0.34414,0.11397 -0.80781,0.17719 -1.38739,0.18603 l -2.95209,0.0441 z m 1.58966,1.29009 0.0777,5.14718 1.17182,-0.0176 c 0.4383,-0.007 0.75344,-0.0378 0.94726,-0.0903 0.25357,-0.0669 0.46367,-0.1773 0.62858,-0.33299 0.16487,-0.15388 0.29899,-0.4056 0.39874,-0.7551 0.10151,-0.34948 0.14696,-0.82579 0.13813,-1.42708 -0.009,-0.59947 -0.0702,-1.05954 -0.18054,-1.38012 -0.1104,-0.3206 -0.26243,-0.56878 -0.45616,-0.74635 -0.19372,-0.17758 -0.43816,-0.29535 -0.73154,-0.35342 -0.22094,-0.0472 -0.65019,-0.0655 -1.28948,-0.0549 l -0.70451,0.0106 z"
       style="fill:#ed1c24;fill-opacity:1;fill-rule:nonzero;stroke:none;stroke-width:0.153579" />
    <path
       id="path37"
       d="m 112.27037,67.495999 c 0.10086,-0.78657 0.30391,-1.43062 0.60912,-1.93213 0.2262,-0.3707 0.51066,-0.69272 0.85511,-0.96442 0.34452,-0.27352 0.70573,-0.46198 1.08731,-0.56546 0.50633,-0.14214 1.07489,-0.17056 1.702,-0.0906 1.13633,0.14783 2.00096,0.61958 2.59198,1.41334 0.59102,0.79371 0.80482,1.81768 0.64126,3.07363 -0.16181,1.24513 -0.62588,2.17488 -1.39413,2.79116 -0.77012,0.61449 -1.7197,0.84957 -2.85245,0.70164 -1.14722,-0.1478 -2.01363,-0.61593 -2.601,-1.40425 -0.58558,-0.78832 -0.79924,-1.79599 -0.6392,-3.02296 z m 1.61093,0.1562 c -0.11305,0.87356 0.003,1.56118 0.34788,2.06465 0.34502,0.50343 0.82833,0.79428 1.44816,0.8743 0.62162,0.0818 1.1587,-0.0768 1.61665,-0.4723 0.45607,-0.39542 0.74243,-1.0399 0.85718,-1.93524 0.1148,-0.8826 0.006,-1.56844 -0.32433,-2.05388 -0.33033,-0.48362 -0.81726,-0.76899 -1.45883,-0.85249 -0.64343,-0.0835 -1.18957,0.0697 -1.63845,0.45972 -0.45071,0.38814 -0.73346,1.02719 -0.84826,1.91524"
       style="fill:#ed1c24;fill-opacity:1;fill-rule:nonzero;stroke:none;stroke-width:0.153579" />
    <path
       id="path38"
       d="m 129.91675,71.820849 1.3316,0.88158 c -0.45686,0.75166 -1.00409,1.25091 -1.63811,1.4977 -0.63578,0.24684 -1.35309,0.25572 -2.15546,0.0267 -0.99393,-0.28306 -1.71211,-0.85558 -2.15643,-1.71569 -0.44609,-0.86193 -0.49968,-1.88023 -0.16456,-3.05671 0.35564,-1.24328 0.95283,-2.11705 1.79174,-2.62309 0.83886,-0.50417 1.78145,-0.60731 2.82958,-0.30762 0.91444,0.26073 1.57899,0.74404 1.99553,1.44634 0.24849,0.41671 0.37295,0.95018 0.37152,1.59675 l -1.5951,-0.0704 c 0.0213,-0.41279 -0.0754,-0.77212 -0.29229,-1.0763 -0.21496,-0.30409 -0.52484,-0.513 -0.92596,-0.62841 -0.55302,-0.1582 -1.05889,-0.0879 -1.5176,0.21097 -0.45877,0.29886 -0.81653,0.8938 -1.06982,1.78472 -0.26994,0.94513 -0.29367,1.66579 -0.0676,2.1656 0.22612,0.49804 0.60939,0.82337 1.15331,0.97979 0.4012,0.11357 0.78362,0.0858 1.14534,-0.0871 0.36177,-0.17284 0.68318,-0.51444 0.96427,-1.02485"
       style="fill:#ed1c24;fill-opacity:1;fill-rule:nonzero;stroke:none;stroke-width:0.153579" />
    <path
       id="path39"
       d="m 133.84327,72.013719 c 0.28534,-0.73856 0.63565,-1.31587 1.05093,-1.73005 0.30831,-0.3057 0.65998,-0.54971 1.0587,-0.73211 0.39869,-0.18233 0.79541,-0.27967 1.19028,-0.28999 0.52524,-0.0156 1.0829,0.0902 1.67305,0.31915 1.06619,0.41253 1.79335,1.07459 2.17789,1.98607 0.38453,0.90969 0.34696,1.95464 -0.10919,3.13489 -0.45254,1.16938 -1.12549,1.9617 -2.01711,2.37532 -0.89163,0.41535 -1.87145,0.41584 -2.93581,0.003 -1.07704,-0.41615 -1.80606,-1.07817 -2.18698,-1.98064 -0.38094,-0.90425 -0.34881,-1.93292 0.0982,-3.08596 z m 1.5261,0.53447 c -0.31801,0.82 -0.36969,1.51542 -0.15494,2.0862 0.21476,0.56894 0.61453,0.96793 1.19736,1.19326 0.58289,0.22717 1.14435,0.20257 1.68081,-0.0738 0.53644,-0.27457 0.96826,-0.83181 1.29354,-1.6735 0.32166,-0.82907 0.37875,-1.51903 0.173,-2.06988 -0.20575,-0.54904 -0.60905,-0.9408 -1.21368,-1.17524 -0.60279,-0.2326 -1.16785,-0.21345 -1.6971,0.0557 -0.52915,0.27099 -0.95554,0.82283 -1.27899,1.6573"
       style="fill:#ed1c24;fill-opacity:1;fill-rule:nonzero;stroke:none;stroke-width:0.153579" />
    <path
       id="path40"
       d="m 141.41539,79.395409 3.51695,-6.86426 1.39688,0.71662 -2.91978,5.6984 3.47576,1.77895 -0.59898,1.16771 z"
       style="fill:#ed1c24;fill-opacity:1;fill-rule:nonzero;stroke:none;stroke-width:0.153579" />
    <path
       id="path41"
       d="m 148.05296,82.951749 4.53839,-6.31623 4.68349,3.3668 -0.76824,1.06806 -3.40799,-2.44896 -1.00545,1.4 3.1698,2.27924 -0.76459,1.06445 -3.16985,-2.27923 -1.23542,1.71752 3.52706,2.53651 -0.76459,1.06445 z m 6.42121,-5.50375 1.52055,-0.86115 1.3567,0.9763 -2.11053,0.43595 z"
       style="fill:#ed1c24;fill-opacity:1;fill-rule:nonzero;stroke:none;stroke-width:0.153579" />
    <path
       id="path42"
       d="m 159.34934,87.926799 0.87325,-0.97651 2.5241,2.25341 -2.0619,2.31158 c -0.45655,0.0191 -0.99923,-0.0892 -1.62631,-0.32468 -0.62706,-0.23553 -1.17938,-0.56477 -1.65682,-0.99141 -0.60716,-0.54148 -1.02384,-1.14159 -1.24634,-1.79847 -0.22437,-0.65698 -0.23853,-1.32353 -0.0426,-1.99975 0.19412,-0.67621 0.54187,-1.29361 1.03776,-1.85034 0.53962,-0.60355 1.14521,-1.02744 1.81678,-1.27163 0.67333,-0.24417 1.36541,-0.27269 2.07788,-0.0892 0.54253,0.14083 1.09309,0.45737 1.64616,0.95144 0.72067,0.64357 1.14974,1.29628 1.2853,1.95996 0.13556,0.66367 0.0231,1.3132 -0.33747,1.95042 l -1.35715,-0.82119 c 0.17236,-0.35759 0.21973,-0.71953 0.1404,-1.08588 -0.0775,-0.36625 -0.28571,-0.70076 -0.62445,-1.00155 -0.51162,-0.45763 -1.06284,-0.65827 -1.65542,-0.60376 -0.59256,0.0563 -1.17233,0.40242 -1.74298,1.04203 -0.61435,0.68823 -0.92254,1.34206 -0.92249,1.95964 -0.002,0.61758 0.2468,1.14612 0.74231,1.58909 0.245,0.2188 0.53376,0.39075 0.8681,0.51404 0.33251,0.12513 0.64723,0.19761 0.94774,0.21746 l 0.65636,-0.73686 z"
       style="fill:#ed1c24;fill-opacity:1;fill-rule:nonzero;stroke:none;stroke-width:0.153579" />
    <path
       id="path43"
       d="m 161.67132,93.901199 5.60719,-5.38412 1.08553,1.13302 -5.60542,5.38418 z"
       style="fill:#ed1c24;fill-opacity:1;fill-rule:nonzero;stroke:none;stroke-width:0.153579" />
    <path
       id="path44"
       d="m 167.15554,94.049439 c 0.60207,-0.51492 1.18517,-0.85427 1.74928,-1.02344 0.4154,-0.12108 0.84299,-0.16778 1.28117,-0.1384 0.43817,0.0276 0.83245,0.13103 1.18469,0.31032 0.46969,0.23599 0.90983,0.59501 1.3203,1.07703 0.74357,0.87311 1.06668,1.80205 0.97108,2.78684 -0.0937,0.983 -0.62354,1.88581 -1.58761,2.70682 -0.95679,0.813731 -1.92586,1.190971 -2.90899,1.131631 -0.98129,-0.0611 -1.84284,-0.5255 -2.58463,-1.394961 -0.74896,-0.88044 -1.07568,-1.80937 -0.98195,-2.78689 0.0955,-0.97751 0.61444,-1.86779 1.55666,-2.66895 z m 1.08961,1.19724 c -0.67122,0.57073 -1.0473,1.15927 -1.13002,1.76195 -0.0828,0.60447 0.0793,1.14503 0.48441,1.6216 0.40687,0.47657 0.91095,0.72181 1.51395,0.73574 0.60485,0.0121 1.24925,-0.27257 1.93687,-0.85768 0.67848,-0.57791 1.05814,-1.1574 1.13894,-1.73836 0.079,-0.58275 -0.0903,-1.11969 -0.50979,-1.61264 -0.41949,-0.49297 -0.92531,-0.74547 -1.52112,-0.75935 -0.59393,-0.014 -1.23293,0.26904 -1.91324,0.84874"
       style="fill:#ed1c24;fill-opacity:1;fill-rule:nonzero;stroke:none;stroke-width:0.153579" />
    <path
       id="path45"
       d="m 172.07372,106.52468 6.74209,-3.87297 1.17041,2.03882 -3.89686,3.86428 5.29501,-1.4324 1.17219,2.04244 -6.74387,3.87301 -0.72576,-1.2637 5.30895,-3.04988 -6.07698,1.71045 -0.75327,-1.31055 4.5428,-4.38209 -5.30896,3.04812 z"
       style="fill:#ed1c24;fill-opacity:1;fill-rule:nonzero;stroke:none;stroke-width:0.153579" />
    <path
       id="path46"
       d="m 176.86874,115.243 7.06768,-3.23841 0.65428,1.42727 -7.06947,3.2384 z"
       style="fill:#ed1c24;fill-opacity:1;fill-rule:nonzero;stroke:none;stroke-width:0.153579" />
    <path
       id="path47"
       d="m 178.51232,118.92565 7.15149,-2.89002 0.58889,1.45601 -5.93636,2.39907 1.46227,3.62008 -1.21338,0.49102 z"
       style="fill:#ed1c24;fill-opacity:1;fill-rule:nonzero;stroke:none;stroke-width:0.153579" />
    <path
       id="path48"
       d="m 181.03122,125.95658 7.46219,-2.17239 0.43817,1.50579 -7.46219,2.17241 z"
       style="fill:#ed1c24;fill-opacity:1;fill-rule:nonzero;stroke:none;stroke-width:0.153579" />
    <path
       id="path49"
       d="m 182.50707,131.50276 6.29547,-1.4412 -0.51604,-2.24946 1.28229,-0.29333 1.37786,6.02204 -1.28043,0.29329 -0.51423,-2.24397 -6.29369,1.44123 z"
       style="fill:#ed1c24;fill-opacity:1;fill-rule:nonzero;stroke:none;stroke-width:0.153579" />
    <path
       id="path50"
       d="m 184.34948,143.37377 -0.21732,-1.69451 1.66557,-0.89852 -0.39468,-3.08281 -1.83248,-0.41189 -0.21214,-1.65286 8.09766,2.01734 0.21213,1.64741 z m 2.68513,-3.25836 2.72617,-1.42891 -2.99563,-0.67705 z"
       style="fill:#ed1c24;fill-opacity:1;fill-rule:nonzero;stroke:none;stroke-width:0.153579" />
    <path
       id="path51"
       d="m 184.3592,145.14295 7.77144,-0.11845 0.0495,3.30168 c 0.0123,0.83128 -0.0476,1.43437 -0.18179,1.81284 -0.13416,0.37846 -0.37695,0.68444 -0.7302,0.91613 -0.35323,0.23169 -0.7608,0.35107 -1.21903,0.35816 -0.58314,0.009 -1.06847,-0.15615 -1.45231,-0.4932 -0.38562,-0.337 -0.63355,-0.84416 -0.742,-1.52522 -0.19389,0.34224 -0.40591,0.62468 -0.63959,0.84918 -0.2337,0.22446 -0.64858,0.52859 -1.24821,0.91231 l -1.50176,0.97203 -0.0283,-1.87637 1.67394,-1.16022 c 0.5978,-0.41093 0.97464,-0.69333 1.13044,-0.84357 0.154,-0.15027 0.25908,-0.30961 0.31533,-0.47621 0.0562,-0.1684 0.0816,-0.43099 0.0745,-0.79142 l -0.003,-0.31876 -3.24557,0.0495 -0.0229,-1.56841 z m 4.50726,1.50128 0.0195,1.15911 c 0.0106,0.75339 0.0502,1.22252 0.1154,1.4091 0.0669,0.18655 0.17915,0.33144 0.33666,0.43478 0.15571,0.10327 0.35131,0.15407 0.58492,0.15049 0.26081,-0.003 0.47091,-0.0777 0.63038,-0.21888 0.15942,-0.14301 0.25728,-0.34039 0.29541,-0.59572 0.0164,-0.1286 0.0183,-0.50896 0.01,-1.1446 l -0.0195,-1.22436 -1.9723,0.0301 z"
       style="fill:#ed1c24;fill-opacity:1;fill-rule:nonzero;stroke:none;stroke-width:0.153579" />
    <path
       id="path52"
       d="m 191.73457,157.91113 -0.36877,2.84727 c -0.0835,0.64161 -0.19687,1.12397 -0.33818,1.44891 -0.19147,0.43569 -0.47935,0.79219 -0.86184,1.07137 -0.3825,0.27732 -0.8306,0.46986 -1.34438,0.57405 -0.51563,0.10417 -1.1332,0.10927 -1.85634,0.0153 -0.63435,-0.0818 -1.17121,-0.23283 -1.61067,-0.44963 -0.53753,-0.26521 -0.9559,-0.59981 -1.2569,-1.00208 -0.22798,-0.3049 -0.38583,-0.69706 -0.47351,-1.17472 -0.0635,-0.35829 -0.0587,-0.82558 0.0161,-1.4001 l 0.38101,-2.93058 z m -1.50667,1.38818 -5.10914,-0.66281 -0.15132,1.16354 c -0.0557,0.435 -0.0721,0.75202 -0.0493,0.95109 0.0304,0.26063 0.11127,0.4848 0.24087,0.67064 0.12772,0.18589 0.35867,0.35311 0.69088,0.50343 0.33225,0.15037 0.79655,0.26382 1.39279,0.34213 0.59628,0.0765 1.05997,0.0831 1.39283,0.0197 0.33295,-0.0634 0.60217,-0.17889 0.80596,-0.34476 0.20198,-0.16591 0.3547,-0.39129 0.45645,-0.67438 0.0767,-0.21053 0.15599,-0.63291 0.23952,-1.26906 z"
       style="fill:#ed1c24;fill-opacity:1;fill-rule:nonzero;stroke:none;stroke-width:0.153579" />
    <path
       id="path53"
       d="m 182.70027,165.59308 7.47429,2.13562 -1.58259,5.54246 -1.26502,-0.3612 1.15249,-4.03356 -1.65713,-0.47292 -1.07243,3.75342 -1.25773,-0.36115 1.07058,-3.75164 -2.03305,-0.58088 -1.19339,4.17448 -1.25963,-0.35937 z"
       style="fill:#ed1c24;fill-opacity:1;fill-rule:nonzero;stroke:none;stroke-width:0.153579" />
    <path
       id="path54"
       d="m 181.99027,177.01428 -0.49363,1.45225 c -0.50434,-0.12694 -0.92441,-0.11323 -1.2584,0.0448 -0.33583,0.15625 -0.60003,0.45324 -0.79811,0.88745 -0.20697,0.46141 -0.26587,0.85306 -0.17674,1.17485 0.0892,0.32176 0.26446,0.54152 0.52427,0.65928 0.16897,0.0749 0.33208,0.0901 0.49477,0.0455 0.16268,-0.0464 0.34113,-0.17078 0.53895,-0.37674 0.13488,-0.14041 0.40975,-0.47553 0.82807,-1.00542 0.53511,-0.681 1.01211,-1.11351 1.42927,-1.29745 0.58684,-0.25938 1.15913,-0.26142 1.72051,-0.008 0.36151,0.16238 0.65126,0.41758 0.87455,0.76376 0.22151,0.34628 0.32748,0.74944 0.31794,1.20773 -0.01,0.46006 -0.13831,0.96262 -0.38459,1.50584 -0.40143,0.89019 -0.89914,1.47136 -1.49139,1.74524 -0.5922,0.2721 -1.21882,0.2727 -1.87993,0.002 l 0.58231,-1.45826 c 0.39189,0.10235 0.71239,0.0893 0.96328,-0.0392 0.25084,-0.13027 0.46639,-0.39618 0.6484,-0.79768 0.18728,-0.41601 0.25007,-0.78048 0.18451,-1.09337 -0.0412,-0.20077 -0.15265,-0.34125 -0.33614,-0.42511 -0.16718,-0.075 -0.34279,-0.0702 -0.52693,0.0181 -0.23288,0.11207 -0.58893,0.47849 -1.0665,1.10116 -0.47932,0.62089 -0.88205,1.06009 -1.20813,1.31409 -0.32606,0.25392 -0.68365,0.40673 -1.07267,0.45645 -0.3909,0.0515 -0.80979,-0.0235 -1.25671,-0.2269 -0.40695,-0.18376 -0.7349,-0.46769 -0.98748,-0.85353 -0.25259,-0.3859 -0.37327,-0.82337 -0.35851,-1.3143 0.0148,-0.4891 0.15955,-1.04248 0.43792,-1.65656 0.405,-0.89745 0.92258,-1.49143 1.55268,-1.78368 0.6319,-0.29407 1.3635,-0.30809 2.19843,-0.0421"
       style="fill:#ed1c24;fill-opacity:1;fill-rule:nonzero;stroke:none;stroke-width:0.153579" />
    <path
       id="path55"
       d="m 172.65246,189.86072 0.84274,-1.48342 1.87031,0.27953 1.53092,-2.70365 -1.21991,-1.42708 0.82119,-1.44901 5.26867,6.46554 -0.81757,1.4435 z m 4.09948,-0.99645 3.03764,0.48985 -1.99186,-2.33461 z"
       style="fill:#ed1c24;fill-opacity:1;fill-rule:nonzero;stroke:none;stroke-width:0.153579" />
    <path
       id="path56"
       d="m 171.64629,191.36705 6.26218,4.50182 -0.91609,1.27556 -5.1995,-3.73724 -2.27923,3.16981 -1.06441,-0.76463 z"
       style="fill:#ed1c24;fill-opacity:1;fill-rule:nonzero;stroke:none;stroke-width:0.153579" />
    <path
       id="path57"
       d="m 166.41563,198.3097 7.65378,3.10394 -1.13402,1.2702 -5.60423,-2.36382 3.02631,5.25375 -1.10842,1.24316 -3.94916,-7.25505 z"
       style="fill:#ed1c24;fill-opacity:1;fill-rule:nonzero;stroke:none;stroke-width:0.153579" />
    <path
       id="path58"
       d="m 157.80779,207.21284 1.23092,-1.18322 1.71252,0.80399 2.24069,-2.15112 -0.75892,-1.71947 1.2001,-1.15247 3.19967,7.70224 -1.19644,1.15064 z m 4.21424,0.2161 2.77142,1.33941 -1.24141,-2.80844 z"
       style="fill:#ed1c24;fill-opacity:1;fill-rule:nonzero;stroke:none;stroke-width:0.153579" />
    <path
       id="path59"
       d="m 161.21847,214.42427 -2.25959,1.7708 c -0.50836,0.39912 -0.92815,0.66415 -1.25579,0.79679 -0.44165,0.17448 -0.89798,0.22765 -1.36537,0.15946 -0.46732,-0.07 -0.92218,-0.24865 -1.36087,-0.53419 -0.44049,-0.28738 -0.88479,-0.71597 -1.33476,-1.29128 -0.39551,-0.5029 -0.67329,-0.98608 -0.83333,-1.4495 -0.19638,-0.56482 -0.26046,-1.0972 -0.19233,-1.59532 0.052,-0.37679 0.21261,-0.76642 0.48554,-1.16884 0.20604,-0.30091 0.53703,-0.62925 0.99289,-0.98662 l 2.32658,-1.82343 z m -2.04662,-0.066 -3.1787,-4.05608 -0.92265,0.72393 c -0.34554,0.27031 -0.57889,0.48436 -0.70183,0.64392 -0.16089,0.20665 -0.26019,0.42233 -0.29972,0.64517 -0.0377,0.22281 0.008,0.50526 0.14062,0.84556 0.13086,0.33849 0.38135,0.74561 0.75331,1.21961 0.37013,0.47218 0.69659,0.80316 0.97939,0.99114 0.28096,0.18795 0.55275,0.29443 0.81543,0.31759 0.26085,0.025 0.52699,-0.0279 0.79847,-0.15864 0.20273,-0.0963 0.55553,-0.34305 1.06031,-0.73677 z"
       style="fill:#ed1c24;fill-opacity:1;fill-rule:nonzero;stroke:none;stroke-width:0.153579" />
    <path
       id="path60"
       d="m 151.60565,216.78029 c 0.39504,0.68684 0.62298,1.32249 0.68571,1.90698 0.0434,0.4325 0.0107,0.86022 -0.0982,1.28494 -0.1088,0.42651 -0.28329,0.79559 -0.52346,1.10907 -0.31711,0.41915 -0.75062,0.78498 -1.30046,1.1009 -0.99327,0.57144 -1.96466,0.71884 -2.91596,0.44587 -0.94948,-0.27483 -1.74111,-0.96019 -2.37127,-2.05803 -0.62476,-1.08883 -0.81778,-2.11057 -0.5793,-3.06519 0.23853,-0.95461 0.85353,-1.71669 1.84502,-2.28628 1.00233,-0.57505 1.97545,-0.7279 2.91766,-0.4549 0.94403,0.27122 1.72291,0.94405 2.34022,2.01664 z m -1.37677,0.85344 c -0.43913,-0.76433 -0.94651,-1.24198 -1.52582,-1.4328 -0.57932,-0.19273 -1.1403,-0.13198 -1.6829,0.18032 -0.54266,0.31054 -0.87577,0.76246 -0.99959,1.35387 -0.12372,0.58967 0.0394,1.27655 0.48775,2.05896 0.44461,0.77155 0.94479,1.25099 1.50228,1.43662 0.55758,0.18563 1.11666,0.11767 1.67733,-0.20383 0.56059,-0.32338 0.90286,-0.77534 1.02488,-1.3577 0.12385,-0.58062 -0.0393,-1.26027 -0.48393,-2.03544"
       style="fill:#ed1c24;fill-opacity:1;fill-rule:nonzero;stroke:none;stroke-width:0.153579" />
    <path
       id="path61"
       d="m 141.22372,218.18453 3.23654,7.06763 -3.00264,1.37635 c -0.75698,0.34639 -1.33375,0.53423 -1.73383,0.56358 -0.40187,0.0311 -0.77913,-0.0701 -1.13355,-0.3 -0.35441,-0.23169 -0.62784,-0.5544 -0.81843,-0.97355 -0.24375,-0.52932 -0.28817,-1.03985 -0.13505,-1.52786 0.15494,-0.48803 0.52028,-0.91924 1.09963,-1.29367 -0.39141,-0.0377 -0.73598,-0.11915 -1.03546,-0.24249 -0.29951,-0.12342 -0.74644,-0.38175 -1.33898,-0.7752 l -1.49404,-0.98444 1.70727,-0.78076 1.7354,1.0646 c 0.61963,0.38249 1.02836,0.61387 1.22806,0.69432 0.20148,0.0822 0.38998,0.1138 0.5638,0.0984 0.17554,-0.0172 0.42869,-0.10013 0.75567,-0.25041 l 0.28907,-0.13195 -1.35073,-2.95209 z m 0.4403,4.7319 -1.05509,0.48379 c -0.68475,0.3134 -1.10007,0.53843 -1.24425,0.67505 -0.14232,0.13661 -0.23022,0.29646 -0.26182,0.48135 -0.0316,0.18672 3.1e-4,0.3858 0.0974,0.59716 0.10998,0.23843 0.26117,0.40064 0.45545,0.48836 0.19243,0.0895 0.41524,0.0992 0.66304,0.0327 0.12298,-0.0369 0.47531,-0.18912 1.05347,-0.45306 l 1.11471,-0.51131 z"
       style="fill:#ed1c24;fill-opacity:1;fill-rule:nonzero;stroke:none;stroke-width:0.153579" />
    <path
       id="path62"
       d="m 105.35165,112.31964 8.88306,27.51895 28.91704,-0.0555 -23.42704,16.95202 8.98868,27.4846 -23.36174,-17.04196 -23.361739,17.04196 8.98868,-27.4846 -23.42704,-16.95202 28.91704,0.0555 z"
       style="fill:#ffffff;fill-opacity:1;fill-rule:evenodd;stroke:none;stroke-width:0.153579" />
    <path
       id="path63"
       d="m 105.35165,115.75853 8.03331,24.88653 26.15088,-0.0502 -21.18601,15.33043 8.12882,24.85552 -21.127,-15.41179 -21.126989,15.41179 8.12883,-24.85552 -21.18603,-15.33043 26.15088,0.0502 z"
       style="fill:#8f9248;fill-opacity:1;fill-rule:evenodd;stroke:none;stroke-width:0.153579" />
    <path
       id="path64"
       d="m 105.35165,119.58628 7.0875,21.95649 23.07201,-0.0443 -18.6917,13.5255 7.17178,21.92911 -18.63959,-13.59724 -18.639589,13.59724 7.17178,-21.92911 -18.69169,-13.5255 23.07201,0.0443 z"
       style="fill:#ed1c24;fill-opacity:1;fill-rule:evenodd;stroke:none;stroke-width:0.153579" />
    <path
       id="path65"
       d="m 76.815971,105.87916 h 4.91126 l 1.20377,-3.00935 h 6.50021 l 1.2278,3.00935 h 5.00761 l -7.17435,-16.972801 h -4.50201 z m 7.48727,-6.644671 1.90192,-4.79089 1.87784,4.79089 z"
       style="fill:none;stroke:#ffffff;stroke-width:2.21154;stroke-linecap:round;stroke-linejoin:round;stroke-miterlimit:22.9256;stroke-dasharray:none;stroke-opacity:1" />
    <path
       id="path66"
       d="m 97.303711,105.87916 h 4.670529 v -4.81498 h 2.31117 c 4.18904,0 7.24653,-2.094511 7.24653,-6.066871 v -0.0482 c 0,-3.73161 -2.74453,-5.92243 -7.00577,-5.92243 h -7.222459 z m 4.670529,-8.474361 v -4.45385 h 2.1908 c 1.68525,0 2.69638,0.77037 2.69638,2.21488 v 0.0481 c 0,1.32414 -1.01113,2.19082 -2.6723,2.19082 z"
       style="fill:none;stroke:#ffffff;stroke-width:2.21154;stroke-linecap:round;stroke-linejoin:round;stroke-miterlimit:22.9256;stroke-dasharray:none;stroke-opacity:1" />
    <path
       id="path67"
       d="m 113.50607,105.87916 h 4.57422 v -9.629941 l 4.28535,6.548361 h 0.0963 l 4.30941,-6.596501 v 9.678081 h 4.64643 V 89.026729 h -4.93533 l -4.02051,6.52429 -4.02051,-6.52429 h -4.93535 z"
       style="fill:none;stroke:#ffffff;stroke-width:2.21154;stroke-linecap:round;stroke-linejoin:round;stroke-miterlimit:22.9256;stroke-dasharray:none;stroke-opacity:1" />
    <path
       id="path68"
       d="m 76.815971,105.87916 h 4.91126 l 1.20377,-3.00935 h 6.50021 l 1.2278,3.00935 h 5.00761 l -7.17435,-16.972801 h -4.50201 z m 7.48727,-6.644671 1.90192,-4.79089 1.87784,4.79089 z"
       style="fill:#ed1c24;fill-opacity:1;fill-rule:nonzero;stroke:none;stroke-width:0.153579" />
    <path
       id="path69"
       d="m 97.303711,105.87916 h 4.670529 v -4.81498 h 2.31117 c 4.18904,0 7.24653,-2.094511 7.24653,-6.066871 v -0.0482 c 0,-3.73161 -2.74453,-5.92243 -7.00577,-5.92243 h -7.222459 z m 4.670529,-8.474361 v -4.45385 h 2.1908 c 1.68525,0 2.69638,0.77037 2.69638,2.21488 v 0.0481 c 0,1.32414 -1.01113,2.19082 -2.6723,2.19082 z"
       style="fill:#ed1c24;fill-opacity:1;fill-rule:nonzero;stroke:none;stroke-width:0.153579" />
    <path
       id="path70"
       d="m 113.50607,105.87916 h 4.57422 v -9.629941 l 4.28535,6.548361 h 0.0963 l 4.30941,-6.596501 v 9.678081 h 4.64643 V 89.026729 h -4.93533 l -4.02051,6.52429 -4.02051,-6.52429 h -4.93535 z"
       style="fill:#ed1c24;fill-opacity:1;fill-rule:nonzero;stroke:none;stroke-width:0.153579" />
    <path
       id="path71"
       d="m 87.014541,209.42119 c 3.73163,0 5.87428,-1.61303 7.46324,-3.80384 l -3.51495,-2.50378 c -1.01113,1.22784 -2.04637,2.04637 -3.80384,2.04637 -2.35934,0 -4.02046,-1.97415 -4.02046,-4.502 v -0.0482 c 0,-2.45563 1.66112,-4.45385 4.02046,-4.45385 1.61303,0 2.7205,0.77037 3.68347,1.97414 l 3.51494,-2.72045 c -1.49265,-2.07044 -3.70754,-3.51495 -7.15026,-3.51495 -5.10385,0 -8.88363,3.85199 -8.88363,8.76326 v 0.0482 c 0,5.03162 3.87607,8.7151 8.69103,8.7151 z"
       style="fill:none;stroke:#ffffff;stroke-width:2.21154;stroke-linecap:round;stroke-linejoin:round;stroke-miterlimit:22.9256;stroke-dasharray:none;stroke-opacity:1" />
    <path
       id="path72"
       d="m 96.475991,209.08415 h 4.574229 v -9.62993 l 4.28532,6.54835 h 0.0963 l 4.30939,-6.5965 v 9.67808 h 4.64645 v -16.85242 h -4.93533 l -4.02051,6.52429 -4.02051,-6.52429 h -4.935349 z"
       style="fill:none;stroke:#ffffff;stroke-width:2.21154;stroke-linecap:round;stroke-linejoin:round;stroke-miterlimit:22.9256;stroke-dasharray:none;stroke-opacity:1" />
    <path
       id="path73"
       d="m 123.99359,209.37303 c 4.09274,0 6.81319,-2.04636 6.81319,-5.48905 v -0.0481 c 0,-3.15383 -2.40749,-4.4057 -6.28356,-5.24834 -2.33526,-0.52964 -2.91304,-0.86668 -2.91304,-1.63711 v -0.0481 c 0,-0.60186 0.55371,-1.08335 1.68521,-1.08335 1.49266,0 3.17791,0.57778 4.71871,1.66117 l 2.33526,-3.29827 c -1.8297,-1.46854 -4.06866,-2.23897 -6.9336,-2.23897 -4.04454,0 -6.52429,2.26303 -6.52429,5.3928 v 0.0482 c 0,3.46675 2.76864,4.47792 6.35577,5.29645 2.28711,0.52964 2.84087,0.91483 2.84087,1.61303 v 0.0482 c 0,0.72223 -0.67413,1.15557 -1.926,1.15557 -1.95007,0 -3.80384,-0.69816 -5.46501,-2.0223 l -2.60009,3.10569 c 2.07044,1.85377 4.91127,2.79266 7.89658,2.79266 z"
       style="fill:none;stroke:#ffffff;stroke-width:2.21154;stroke-linecap:round;stroke-linejoin:round;stroke-miterlimit:22.9256;stroke-dasharray:none;stroke-opacity:1" />
    <path
       id="path74"
       d="m 87.014541,209.42119 c 3.73163,0 5.87428,-1.61303 7.46324,-3.80384 l -3.51495,-2.50378 c -1.01113,1.22784 -2.04637,2.04637 -3.80384,2.04637 -2.35934,0 -4.02046,-1.97415 -4.02046,-4.502 v -0.0482 c 0,-2.45563 1.66112,-4.45385 4.02046,-4.45385 1.61303,0 2.7205,0.77037 3.68347,1.97414 l 3.51494,-2.72045 c -1.49265,-2.07044 -3.70754,-3.51495 -7.15026,-3.51495 -5.10385,0 -8.88363,3.85199 -8.88363,8.76326 v 0.0482 c 0,5.03162 3.87607,8.7151 8.69103,8.7151"
       style="fill:#ed1c24;fill-opacity:1;fill-rule:nonzero;stroke:none;stroke-width:0.153579" />
    <path
       id="path75"
       d="m 96.475991,209.08415 h 4.574229 v -9.62993 l 4.28532,6.54835 h 0.0963 l 4.30939,-6.5965 v 9.67808 h 4.64645 v -16.85242 h -4.93533 l -4.02051,6.52429 -4.02051,-6.52429 h -4.935349 z"
       style="fill:#ed1c24;fill-opacity:1;fill-rule:nonzero;stroke:none;stroke-width:0.153579" />
    <path
       id="path76"
       d="m 123.99359,209.37303 c 4.09274,0 6.81319,-2.04636 6.81319,-5.48905 v -0.0481 c 0,-3.15383 -2.40749,-4.4057 -6.28356,-5.24834 -2.33526,-0.52964 -2.91304,-0.86668 -2.91304,-1.63711 v -0.0481 c 0,-0.60186 0.55371,-1.08335 1.68521,-1.08335 1.49266,0 3.17791,0.57778 4.71871,1.66117 l 2.33526,-3.29827 c -1.8297,-1.46854 -4.06866,-2.23897 -6.9336,-2.23897 -4.04454,0 -6.52429,2.26303 -6.52429,5.3928 v 0.0482 c 0,3.46675 2.76864,4.47792 6.35577,5.29645 2.28711,0.52964 2.84087,0.91483 2.84087,1.61303 v 0.0482 c 0,0.72223 -0.67413,1.15557 -1.926,1.15557 -1.95007,0 -3.80384,-0.69816 -5.46501,-2.0223 l -2.60009,3.10569 c 2.07044,1.85377 4.91127,2.79266 7.89658,2.79266"
       style="fill:#ed1c24;fill-opacity:1;fill-rule:nonzero;stroke:none;stroke-width:0.153579" />
    <path
       id="path77"
       d="m 103.50297,141.21511 -1.62925,0.0218 -0.33966,-0.90816 -1.03725,-0.004 0.47492,1.62652 7.15671,0.0154 c 0.17748,-0.25015 0.53028,-1.32656 0.56854,-1.63845 l -1.13715,-0.007 -0.39611,0.89392 -1.34468,-0.004 -0.0363,-1.1897 -2.26147,-0.0351 -0.0183,1.2283 z"
       style="fill:none;stroke:#8f9248;stroke-width:0.589757;stroke-linecap:butt;stroke-linejoin:miter;stroke-miterlimit:22.9256;stroke-dasharray:none;stroke-opacity:1" />
    <path
       id="path78"
       d="m 103.50319,141.21487 -1.62927,0.0218 -0.33964,-0.90817 -1.03726,-0.004 0.47492,1.62653 7.15671,0.0153 c 0.17749,-0.25015 0.53029,-1.32656 0.56856,-1.63845 l -1.13716,-0.007 -0.39611,0.89394 -1.34469,-0.004 -0.0363,-1.18972 -2.26148,-0.0351 z"
       style="fill:#ffffff;fill-opacity:1;fill-rule:evenodd;stroke:none;stroke-width:0.153579" />
    <path
       id="path79"
       d="m 106.80003,158.83949 3.87774,0.003 0.0125,-1.59116 -3.89478,-0.01 0.005,1.59783 z"
       style="fill:none;stroke:#8f9248;stroke-width:0.589757;stroke-linecap:butt;stroke-linejoin:miter;stroke-miterlimit:22.9256;stroke-dasharray:none;stroke-opacity:1" />
    <path
       id="path80"
       d="m 106.80025,158.83928 3.87776,0.003 0.0125,-1.59119 -3.89479,-0.01 z"
       style="fill:#ffffff;fill-opacity:1;fill-rule:evenodd;stroke:none;stroke-width:0.153579" />
    <path
       id="path81"
       d="m 98.442981,158.84789 3.843869,-0.005 0.0152,-1.59586 -3.865149,-0.006 0.006,1.607 z"
       style="fill:none;stroke:#8f9248;stroke-width:0.589757;stroke-linecap:butt;stroke-linejoin:miter;stroke-miterlimit:22.9256;stroke-dasharray:none;stroke-opacity:1" />
    <path
       id="path82"
       d="m 98.443171,158.84768 3.843889,-0.005 0.0152,-1.59589 -3.865179,-0.006 z"
       style="fill:#ffffff;fill-opacity:1;fill-rule:evenodd;stroke:none;stroke-width:0.153579" />
    <path
       id="path83"
       d="m 102.71092,158.82316 0.39403,0.0246 1.40013,-0.004 1.23525,-5e-5 0.64061,-0.008 0.009,-1.56924 -3.68335,-0.0224 0.005,1.57972 z"
       style="fill:none;stroke:#8f9248;stroke-width:0.589757;stroke-linecap:butt;stroke-linejoin:miter;stroke-miterlimit:22.9256;stroke-dasharray:none;stroke-opacity:1" />
    <path
       id="path84"
       d="m 102.71114,158.82296 0.39402,0.0246 1.40015,-0.004 1.23523,-5e-5 0.64061,-0.008 0.009,-1.56924 -3.68335,-0.0224 z"
       style="fill:#ffffff;fill-opacity:1;fill-rule:evenodd;stroke:none;stroke-width:0.153579" />
    <path
       id="path85"
       d="m 100.47078,160.80662 3.89252,0.0119 0.016,-1.49531 -3.90383,0.004 -0.005,1.47889 z"
       style="fill:none;stroke:#8f9248;stroke-width:0.589757;stroke-linecap:butt;stroke-linejoin:miter;stroke-miterlimit:22.9256;stroke-dasharray:none;stroke-opacity:1" />
    <path
       id="path86"
       d="m 100.47099,160.80641 3.89252,0.0119 0.016,-1.4953 -3.90385,0.004 z"
       style="fill:#ffffff;fill-opacity:1;fill-rule:evenodd;stroke:none;stroke-width:0.153579" />
    <path
       id="path87"
       d="m 102.70882,147.53362 3.66619,0.0206 0.006,-1.5869 -3.6374,-0.008 -0.0351,1.57407 z"
       style="fill:none;stroke:#8f9248;stroke-width:0.589757;stroke-linecap:butt;stroke-linejoin:miter;stroke-miterlimit:22.9256;stroke-dasharray:none;stroke-opacity:1" />
    <path
       id="path88"
       d="m 102.70904,147.53337 3.66618,0.0206 0.006,-1.58692 -3.63741,-0.008 z"
       style="fill:#ffffff;fill-opacity:1;fill-rule:evenodd;stroke:none;stroke-width:0.153579" />
    <path
       id="path89"
       d="m 104.80254,160.81811 3.66911,-8.7e-4 0.0161,-1.49414 -3.67919,0.003 -0.006,1.49199 z"
       style="fill:none;stroke:#8f9248;stroke-width:0.589757;stroke-linecap:butt;stroke-linejoin:miter;stroke-miterlimit:22.9256;stroke-dasharray:none;stroke-opacity:1" />
    <path
       id="path90"
       d="m 104.80278,160.81792 3.6691,-4.4e-4 0.0161,-1.49414 -3.67922,0.003 -0.006,1.492 z"
       style="fill:#ffffff;fill-opacity:1;fill-rule:evenodd;stroke:none;stroke-width:0.153579" />
    <path
       id="path91"
       d="m 102.71339,143.82355 3.65753,0.0169 0.0189,-1.37201 -3.67323,-0.0192 -0.003,1.37432 z"
       style="fill:none;stroke:#8f9248;stroke-width:0.589757;stroke-linecap:butt;stroke-linejoin:miter;stroke-miterlimit:22.9256;stroke-dasharray:none;stroke-opacity:1" />
    <path
       id="path92"
       d="m 102.71361,143.82331 3.65753,0.0169 0.0189,-1.37202 -3.67324,-0.0192 z"
       style="fill:#ffffff;fill-opacity:1;fill-rule:evenodd;stroke:none;stroke-width:0.153579" />
    <path
       id="path93"
       d="m 108.89895,160.7893 c 0.41235,0.0603 2.22911,0.0861 2.54293,-0.036 0.19723,-0.0767 0.62742,-0.40635 0.78728,-0.5279 0.33561,-0.25519 0.50133,-0.34642 0.48945,-0.87861 l -3.81728,-0.0181 -0.002,1.46066 z"
       style="fill:none;stroke:#8f9248;stroke-width:0.589757;stroke-linecap:butt;stroke-linejoin:miter;stroke-miterlimit:22.9256;stroke-dasharray:none;stroke-opacity:1" />
    <path
       id="path94"
       d="m 108.89917,160.78909 c 0.41236,0.0603 2.22912,0.0861 2.54296,-0.036 0.19721,-0.0767 0.62741,-0.40634 0.78727,-0.5279 0.3356,-0.25518 0.50133,-0.3464 0.48946,-0.87861 l -3.8173,-0.0181 z"
       style="fill:#ffffff;fill-opacity:1;fill-rule:evenodd;stroke:none;stroke-width:0.153579" />
    <path
       id="path95"
       d="m 100.04872,160.80863 0.0123,-1.47194 -3.769169,-0.009 c 0.0142,0.49947 0.89501,1.06993 1.30522,1.31664 0.55977,0.33656 1.71442,0.19563 2.451669,0.16391 z"
       style="fill:none;stroke:#8f9248;stroke-width:0.589757;stroke-linecap:butt;stroke-linejoin:miter;stroke-miterlimit:22.9256;stroke-dasharray:none;stroke-opacity:1" />
    <path
       id="path96"
       d="m 100.04893,160.80842 0.0123,-1.47193 -3.769189,-0.009 c 0.0142,0.49947 0.89503,1.06994 1.30524,1.31665 0.55976,0.33657 1.71443,0.19564 2.451669,0.16391"
       style="fill:#ffffff;fill-opacity:1;fill-rule:evenodd;stroke:none;stroke-width:0.153579" />
    <path
       id="path97"
       d="m 111.10663,157.52464 0.003,1.29962 1.63055,0.021 0.41175,-0.002 h 0.42573 c 0.18019,-0.45902 0.33703,-1.01054 0.35605,-1.60518 l -2.82715,0.008 v 0.27863 z"
       style="fill:none;stroke:#8f9248;stroke-width:0.589757;stroke-linecap:butt;stroke-linejoin:miter;stroke-miterlimit:22.9256;stroke-dasharray:none;stroke-opacity:1" />
    <path
       id="path98"
       d="m 111.10686,157.52442 0.003,1.29963 1.63057,0.021 0.41175,-0.002 0.42572,-4.3e-4 c 0.18018,-0.45904 0.33703,-1.01057 0.35606,-1.60519 l -2.82716,0.008 3.1e-4,0.2786 z"
       style="fill:#ffffff;fill-opacity:1;fill-rule:evenodd;stroke:none;stroke-width:0.153579" />
    <path
       id="path99"
       d="m 95.670671,158.84436 2.34436,-8.7e-4 0.0186,-1.60458 -2.71909,0.002 c 0.0243,0.72036 0.15712,1.05832 0.3561,1.60327 z"
       style="fill:none;stroke:#8f9248;stroke-width:0.589757;stroke-linecap:butt;stroke-linejoin:miter;stroke-miterlimit:22.9256;stroke-dasharray:none;stroke-opacity:1" />
    <path
       id="path100"
       d="m 95.670871,158.84416 2.34437,-8.7e-4 0.0186,-1.60457 -2.71909,0.002 c 0.0243,0.72036 0.15711,1.05833 0.3561,1.60329"
       style="fill:#ffffff;fill-opacity:1;fill-rule:evenodd;stroke:none;stroke-width:0.153579" />
    <path
       id="path101"
       d="m 105.82716,156.79965 2.84902,0.0271 -0.4723,-1.43431 -2.36574,-0.0133 z"
       style="fill:none;stroke:#8f9248;stroke-width:0.589757;stroke-linecap:butt;stroke-linejoin:miter;stroke-miterlimit:22.9256;stroke-dasharray:none;stroke-opacity:1" />
    <path
       id="path102"
       d="m 105.82739,156.79945 2.84901,0.0271 -0.4723,-1.43432 -2.36574,-0.0133 z"
       style="fill:#ffffff;fill-opacity:1;fill-rule:evenodd;stroke:none;stroke-width:0.153579" />
    <path
       id="path103"
       d="m 109.1953,156.8367 2.67845,-0.0125 c -0.10592,-0.2148 -0.34279,-0.51291 -0.49193,-0.74116 -0.18036,-0.27601 -0.35663,-0.53591 -0.51487,-0.77266 l -2.189,0.001 0.51735,1.52501 z"
       style="fill:none;stroke:#8f9248;stroke-width:0.589757;stroke-linecap:butt;stroke-linejoin:miter;stroke-miterlimit:22.9256;stroke-dasharray:none;stroke-opacity:1" />
    <path
       id="path104"
       d="m 109.19555,156.83649 2.67844,-0.0125 c -0.10592,-0.21481 -0.34279,-0.51292 -0.49194,-0.74117 -0.18037,-0.27602 -0.35663,-0.53592 -0.51488,-0.77266 l -2.18899,0.001 0.51737,1.52499 z"
       style="fill:#ffffff;fill-opacity:1;fill-rule:evenodd;stroke:none;stroke-width:0.153579" />
    <path
       id="path105"
       d="m 102.71501,151.22077 c 1.24315,0.10588 0.61,-0.5397 1.58298,-0.73064 1.01134,-0.19846 1.10564,0.6061 1.52464,0.74609 l 0.53778,-0.007 0.0294,-1.34654 -3.66945,-0.0194 -0.005,1.3573 z"
       style="fill:none;stroke:#8f9248;stroke-width:0.589757;stroke-linecap:butt;stroke-linejoin:miter;stroke-miterlimit:22.9256;stroke-dasharray:none;stroke-opacity:1" />
    <path
       id="path106"
       d="m 102.71523,151.22054 c 1.24315,0.10588 0.61,-0.53969 1.58298,-0.73063 1.01135,-0.19847 1.10564,0.60608 1.52465,0.74608 l 0.53779,-0.007 0.0294,-1.34654 -3.66944,-0.0194 z"
       style="fill:#ffffff;fill-opacity:1;fill-rule:evenodd;stroke:none;stroke-width:0.153579" />
    <path
       id="path107"
       d="m 97.378411,156.82164 2.57197,0.003 c 0.229759,-0.35462 0.444049,-1.01456 0.500629,-1.49675 l -2.184019,-0.003 c -0.2193,0.39503 -0.79341,1.19246 -0.88858,1.49671 z"
       style="fill:none;stroke:#8f9248;stroke-width:0.589757;stroke-linecap:butt;stroke-linejoin:miter;stroke-miterlimit:22.9256;stroke-dasharray:none;stroke-opacity:1" />
    <path
       id="path108"
       d="m 97.378641,156.82142 2.57195,0.003 c 0.229769,-0.35463 0.444039,-1.01458 0.500639,-1.49675 l -2.184019,-0.003 c -0.21932,0.39504 -0.79342,1.19245 -0.88857,1.4967"
       style="fill:#ffffff;fill-opacity:1;fill-rule:evenodd;stroke:none;stroke-width:0.153579" />
    <path
       id="path109"
       d="m 100.50445,156.80262 2.72151,0.0214 0.0432,-1.43188 -2.30506,-0.0137 z"
       style="fill:none;stroke:#8f9248;stroke-width:0.589757;stroke-linecap:butt;stroke-linejoin:miter;stroke-miterlimit:22.9256;stroke-dasharray:none;stroke-opacity:1" />
    <path
       id="path110"
       d="m 100.50464,156.80241 2.72154,0.0214 0.0431,-1.43188 -2.30503,-0.0137 z"
       style="fill:#ffffff;fill-opacity:1;fill-rule:evenodd;stroke:none;stroke-width:0.153579" />
    <path
       id="path111"
       d="m 107.72404,145.53387 2.51732,0.01 c 0.16356,-0.21513 0.64139,-1.01869 0.73536,-1.25499 l -3.07397,-0.0283 z"
       style="fill:none;stroke:#8f9248;stroke-width:0.589757;stroke-linecap:butt;stroke-linejoin:miter;stroke-miterlimit:22.9256;stroke-dasharray:none;stroke-opacity:1" />
    <path
       id="path112"
       d="m 107.72426,145.53364 2.51733,0.01 c 0.16356,-0.21514 0.64139,-1.0187 0.73538,-1.255 l -3.07399,-0.0283 z"
       style="fill:#ffffff;fill-opacity:1;fill-rule:evenodd;stroke:none;stroke-width:0.153579" />
    <path
       id="path113"
       d="m 98.823021,145.53431 0.57639,0.0139 1.940429,-0.001 -0.22156,-1.27094 -0.40108,-0.0211 -2.141239,0.004 -0.37939,0.018 c 0.16286,0.40147 0.35715,0.94396 0.62645,1.25697 z"
       style="fill:none;stroke:#8f9248;stroke-width:0.589757;stroke-linecap:butt;stroke-linejoin:miter;stroke-miterlimit:22.9256;stroke-dasharray:none;stroke-opacity:1" />
    <path
       id="path114"
       d="m 98.823231,145.53407 0.5764,0.0138 1.940429,-10e-4 -0.22158,-1.27094 -0.40109,-0.0211 -2.141219,0.004 -0.3794,0.018 c 0.16287,0.40147 0.35716,0.94396 0.62646,1.25697"
       style="fill:#ffffff;fill-opacity:1;fill-rule:evenodd;stroke:none;stroke-width:0.153579" />
    <path
       id="path115"
       d="m 102.71288,162.10624 c 0.8925,0.15612 2.78543,0.16413 3.66661,0.0141 l 0.006,-0.87114 -3.66588,-0.0131 -0.007,0.87025 z"
       style="fill:none;stroke:#8f9248;stroke-width:0.589757;stroke-linecap:butt;stroke-linejoin:miter;stroke-miterlimit:22.9256;stroke-dasharray:none;stroke-opacity:1" />
    <path
       id="path116"
       d="m 102.71309,162.10604 c 0.89249,0.15612 2.78544,0.16413 3.66662,0.0141 l 0.006,-0.87116 -3.66588,-0.0131 z"
       style="fill:#ffffff;fill-opacity:1;fill-rule:evenodd;stroke:none;stroke-width:0.153579" />
    <path
       id="path117"
       d="m 99.594441,147.52487 1.924559,0.007 -0.0865,-1.57523 -2.432069,0.008 0.59406,1.56092 z"
       style="fill:none;stroke:#8f9248;stroke-width:0.589757;stroke-linecap:butt;stroke-linejoin:miter;stroke-miterlimit:22.9256;stroke-dasharray:none;stroke-opacity:1" />
    <path
       id="path118"
       d="m 99.594661,147.52462 1.924549,0.007 -0.0865,-1.57524 -2.432089,0.008 z"
       style="fill:#ffffff;fill-opacity:1;fill-rule:evenodd;stroke:none;stroke-width:0.153579" />
    <path
       id="path119"
       d="m 107.48191,147.51738 1.88175,0.0133 0.67018,-1.56148 -2.41085,-0.008 -0.14108,1.55595 z"
       style="fill:none;stroke:#8f9248;stroke-width:0.589757;stroke-linecap:butt;stroke-linejoin:miter;stroke-miterlimit:22.9256;stroke-dasharray:none;stroke-opacity:1" />
    <path
       id="path120"
       d="m 107.48213,147.51714 1.88177,0.0133 0.67016,-1.56148 -2.41084,-0.008 z"
       style="fill:#ffffff;fill-opacity:1;fill-rule:evenodd;stroke:none;stroke-width:0.153579" />
    <path
       id="path121"
       d="m 101.72545,145.47075 2.64829,0.005 0.0199,-1.18211 -2.84361,-0.0333 0.17538,1.21038 z"
       style="fill:none;stroke:#8f9248;stroke-width:0.589757;stroke-linecap:butt;stroke-linejoin:miter;stroke-miterlimit:22.9256;stroke-dasharray:none;stroke-opacity:1" />
    <path
       id="path122"
       d="m 101.72566,145.47051 2.64831,0.005 0.0199,-1.18213 -2.8436,-0.0333 z"
       style="fill:#ffffff;fill-opacity:1;fill-rule:evenodd;stroke:none;stroke-width:0.153579" />
    <path
       id="path123"
       d="m 101.93488,149.37758 2.45198,-0.004 0.005,-1.29671 -2.44639,-0.0391 -0.0108,1.33998 z"
       style="fill:none;stroke:#8f9248;stroke-width:0.589757;stroke-linecap:butt;stroke-linejoin:miter;stroke-miterlimit:22.9256;stroke-dasharray:none;stroke-opacity:1" />
    <path
       id="path124"
       d="m 101.93509,149.37735 2.45198,-0.004 0.005,-1.29672 -2.44641,-0.0391 z"
       style="fill:#ffffff;fill-opacity:1;fill-rule:evenodd;stroke:none;stroke-width:0.153579" />
    <path
       id="path125"
       d="m 104.80147,145.44862 2.53804,0.0284 0.21247,-1.20566 -2.74964,-0.003 -9.2e-4,1.18055 z"
       style="fill:none;stroke:#8f9248;stroke-width:0.589757;stroke-linecap:butt;stroke-linejoin:miter;stroke-miterlimit:22.9256;stroke-dasharray:none;stroke-opacity:1" />
    <path
       id="path126"
       d="m 104.80169,145.44839 2.53804,0.0284 0.21249,-1.20567 -2.74966,-0.003 -9.1e-4,1.18056 z"
       style="fill:#ffffff;fill-opacity:1;fill-rule:evenodd;stroke:none;stroke-width:0.153579" />
    <path
       id="path127"
       d="m 104.80408,149.37789 2.28006,8.7e-4 0.0127,-1.34003 -2.28277,0.001 -0.01,1.33793 z"
       style="fill:none;stroke:#8f9248;stroke-width:0.589757;stroke-linecap:butt;stroke-linejoin:miter;stroke-miterlimit:22.9256;stroke-dasharray:none;stroke-opacity:1" />
    <path
       id="path128"
       d="m 104.8043,149.37766 2.28006,8.7e-4 0.0128,-1.34002 -2.28275,0.001 -0.0101,1.33793 z"
       style="fill:#ffffff;fill-opacity:1;fill-rule:evenodd;stroke:none;stroke-width:0.153579" />
    <path
       id="path129"
       d="m 98.544661,154.88679 2.090089,0.002 0.35173,-1.28968 -1.872039,-0.002 -0.56978,1.28996 z"
       style="fill:none;stroke:#8f9248;stroke-width:0.589757;stroke-linecap:butt;stroke-linejoin:miter;stroke-miterlimit:22.9256;stroke-dasharray:none;stroke-opacity:1" />
    <path
       id="path130"
       d="m 98.544871,154.88656 2.090069,0.002 0.35176,-1.28969 -1.872049,-0.002 z"
       style="fill:#ffffff;fill-opacity:1;fill-rule:evenodd;stroke:none;stroke-width:0.153579" />
    <path
       id="path131"
       d="m 99.840801,149.37219 1.734829,0.0318 0.006,-1.39379 -1.923569,0.0189 0.18306,1.34302 z"
       style="fill:none;stroke:#8f9248;stroke-width:0.589757;stroke-linecap:butt;stroke-linejoin:miter;stroke-miterlimit:22.9256;stroke-dasharray:none;stroke-opacity:1" />
    <path
       id="path132"
       d="m 99.841011,149.37196 1.734839,0.0318 0.006,-1.39379 -1.923559,0.0189 z"
       style="fill:#ffffff;fill-opacity:1;fill-rule:evenodd;stroke:none;stroke-width:0.153579" />
    <path
       id="path133"
       d="m 112.49292,156.82713 1.3184,-0.004 c -0.11163,-0.57039 -0.47244,-1.23938 -0.80559,-1.47164 l -1.61891,-0.0404 c 0.0996,0.28383 0.76107,1.3489 1.1061,1.5161 z"
       style="fill:none;stroke:#8f9248;stroke-width:0.589757;stroke-linecap:butt;stroke-linejoin:miter;stroke-miterlimit:22.9256;stroke-dasharray:none;stroke-opacity:1" />
    <path
       id="path134"
       d="m 112.49318,156.82692 1.31838,-0.004 c -0.11162,-0.57039 -0.47243,-1.23938 -0.8056,-1.47162 l -1.61891,-0.0404 c 0.0996,0.28384 0.76106,1.34891 1.10613,1.51612"
       style="fill:#ffffff;fill-opacity:1;fill-rule:evenodd;stroke:none;stroke-width:0.153579" />
    <path
       id="path135"
       d="m 108.43738,154.89243 2.03141,8.7e-4 -0.62664,-1.29647 -1.72156,-0.006 0.31679,1.30162 z"
       style="fill:none;stroke:#8f9248;stroke-width:0.589757;stroke-linecap:butt;stroke-linejoin:miter;stroke-miterlimit:22.9256;stroke-dasharray:none;stroke-opacity:1" />
    <path
       id="path136"
       d="m 108.43762,154.89222 2.03139,4.3e-4 -0.62664,-1.29648 -1.72155,-0.006 0.3168,1.30162 z"
       style="fill:#ffffff;fill-opacity:1;fill-rule:evenodd;stroke:none;stroke-width:0.153579" />
    <path
       id="path137"
       d="m 95.473061,156.82535 c 0.6077,0 1.28205,0.15066 1.56772,-0.25752 0.16912,-0.24169 0.62228,-1.00171 0.70438,-1.2502 -1.44367,-0.0114 -1.49022,-0.15602 -1.9201,0.52795 -0.17776,0.28282 -0.37363,0.62743 -0.352,0.97977 z"
       style="fill:none;stroke:#8f9248;stroke-width:0.589757;stroke-linecap:butt;stroke-linejoin:miter;stroke-miterlimit:22.9256;stroke-dasharray:none;stroke-opacity:1" />
    <path
       id="path138"
       d="m 95.473281,156.82513 c 0.60769,-3.1e-4 1.28203,0.15067 1.5677,-0.25751 0.16913,-0.24169 0.62228,-1.00172 0.70439,-1.25021 -1.44369,-0.0114 -1.49022,-0.15602 -1.92012,0.52795 -0.17775,0.28284 -0.37361,0.62745 -0.35197,0.97977"
       style="fill:#ffffff;fill-opacity:1;fill-rule:evenodd;stroke:none;stroke-width:0.153579" />
    <path
       id="path139"
       d="m 107.44234,149.39901 0.43908,0.002 h 0.82863 l 0.385,-0.0218 0.18907,-1.36037 -1.83831,-0.005 -0.003,1.38552 z"
       style="fill:none;stroke:#8f9248;stroke-width:0.589757;stroke-linecap:butt;stroke-linejoin:miter;stroke-miterlimit:22.9256;stroke-dasharray:none;stroke-opacity:1" />
    <path
       id="path140"
       d="m 107.44255,149.39877 0.4391,0.002 0.82862,-3.1e-4 0.38502,-0.0218 0.18907,-1.36035 -1.83832,-0.005 -0.003,1.38553 z"
       style="fill:#ffffff;fill-opacity:1;fill-rule:evenodd;stroke:none;stroke-width:0.153579" />
    <path
       id="path141"
       d="m 99.335431,153.11181 1.793069,-0.006 0.22673,-1.39131 -1.626449,0.006 -0.39335,1.39183 z"
       style="fill:none;stroke:#8f9248;stroke-width:0.589757;stroke-linecap:butt;stroke-linejoin:miter;stroke-miterlimit:22.9256;stroke-dasharray:none;stroke-opacity:1" />
    <path
       id="path142"
       d="m 99.335631,153.11158 1.793079,-0.006 0.22673,-1.39132 -1.626449,0.006 z"
       style="fill:#ffffff;fill-opacity:1;fill-rule:evenodd;stroke:none;stroke-width:0.153579" />
    <path
       id="path143"
       d="m 101.52101,153.09962 0.76065,0.009 0.57644,-8.7e-4 0.40614,-0.0149 0.003,-1.35021 -0.32619,-0.0279 -0.57669,0.004 -0.6357,8.7e-4 -0.20733,1.37978 z"
       style="fill:none;stroke:#8f9248;stroke-width:0.589757;stroke-linecap:butt;stroke-linejoin:miter;stroke-miterlimit:22.9256;stroke-dasharray:none;stroke-opacity:1" />
    <path
       id="path144"
       d="m 101.52121,153.0994 0.76068,0.009 0.57642,-8.7e-4 0.40614,-0.0149 0.003,-1.35022 -0.3262,-0.028 -0.5767,0.004 -0.63568,8.7e-4 -0.20736,1.37977 z"
       style="fill:#ffffff;fill-opacity:1;fill-rule:evenodd;stroke:none;stroke-width:0.153579" />
    <path
       id="path145"
       d="m 99.794841,151.23349 1.613189,-0.005 0.13478,-1.33602 -1.679849,-0.003 -0.0681,1.34391 z"
       style="fill:none;stroke:#8f9248;stroke-width:0.589757;stroke-linecap:butt;stroke-linejoin:miter;stroke-miterlimit:22.9256;stroke-dasharray:none;stroke-opacity:1" />
    <path
       id="path146"
       d="m 99.795051,151.23326 1.613189,-0.005 0.13478,-1.33602 -1.679849,-0.003 z"
       style="fill:#ffffff;fill-opacity:1;fill-rule:evenodd;stroke:none;stroke-width:0.153579" />
    <path
       id="path147"
       d="m 107.93754,153.07971 1.66683,0.0297 -0.38281,-1.37729 -1.52983,-0.0171 z"
       style="fill:none;stroke:#8f9248;stroke-width:0.589757;stroke-linecap:butt;stroke-linejoin:miter;stroke-miterlimit:22.9256;stroke-dasharray:none;stroke-opacity:1" />
    <path
       id="path148"
       d="m 107.93775,153.07949 1.66684,0.0297 -0.3828,-1.37729 -1.52983,-0.0172 z"
       style="fill:#ffffff;fill-opacity:1;fill-rule:evenodd;stroke:none;stroke-width:0.153579" />
    <path
       id="path149"
       d="m 105.83034,153.08417 1.71811,0.0211 -0.22941,-1.34542 -1.49204,-0.0378 0.003,1.36213 z"
       style="fill:none;stroke:#8f9248;stroke-width:0.589757;stroke-linecap:butt;stroke-linejoin:miter;stroke-miterlimit:22.9256;stroke-dasharray:none;stroke-opacity:1" />
    <path
       id="path150"
       d="m 105.83057,153.08393 1.71812,0.0211 -0.22942,-1.34541 -1.49205,-0.0378 z"
       style="fill:#ffffff;fill-opacity:1;fill-rule:evenodd;stroke:none;stroke-width:0.153579" />
    <path
       id="path151"
       d="m 109.22953,143.82255 c 0.36614,0.0148 1.70467,0.0554 1.91767,-0.007 0.17384,-0.0509 0.71021,-0.73892 0.80517,-0.98379 l -2.13877,-0.0126 -0.58407,1.00333 z"
       style="fill:none;stroke:#8f9248;stroke-width:0.589757;stroke-linecap:butt;stroke-linejoin:miter;stroke-miterlimit:22.9256;stroke-dasharray:none;stroke-opacity:1" />
    <path
       id="path152"
       d="m 109.22976,143.82231 c 0.36612,0.0148 1.70467,0.0554 1.91768,-0.007 0.17384,-0.0508 0.71023,-0.73892 0.80517,-0.98378 l -2.13879,-0.0126 z"
       style="fill:#ffffff;fill-opacity:1;fill-rule:evenodd;stroke:none;stroke-width:0.153579" />
    <path
       id="path153"
       d="m 109.09811,151.23279 -0.0456,-1.30817 -1.55271,-0.0431 c -0.007,0.27171 0.008,1.15679 0.14431,1.28992 0.19256,0.18797 1.11599,0.0615 1.45404,0.0614 z"
       style="fill:none;stroke:#8f9248;stroke-width:0.589757;stroke-linecap:butt;stroke-linejoin:miter;stroke-miterlimit:22.9256;stroke-dasharray:none;stroke-opacity:1" />
    <path
       id="path154"
       d="m 109.09833,151.23257 -0.0456,-1.30817 -1.55275,-0.0431 c -0.007,0.2717 0.008,1.15679 0.14432,1.28993 0.19256,0.18798 1.116,0.0615 1.45404,0.0614"
       style="fill:#ffffff;fill-opacity:1;fill-rule:evenodd;stroke:none;stroke-width:0.153579" />
    <path
       id="path155"
       d="m 97.904591,143.8411 1.89838,-0.004 c -0.07,-0.23282 -0.4463,-0.85253 -0.58358,-1.01953 h -1.95449 c 0.0548,0.26648 0.47881,0.79275 0.63969,1.02324 z"
       style="fill:none;stroke:#8f9248;stroke-width:0.589757;stroke-linecap:butt;stroke-linejoin:miter;stroke-miterlimit:22.9256;stroke-dasharray:none;stroke-opacity:1" />
    <path
       id="path156"
       d="m 97.904781,143.84085 1.89841,-0.004 c -0.07,-0.23281 -0.44632,-0.85252 -0.58359,-1.01952 l -1.9545,3.1e-4 c 0.0548,0.26648 0.47882,0.79276 0.63968,1.02322"
       style="fill:#ffffff;fill-opacity:1;fill-rule:evenodd;stroke:none;stroke-width:0.153579" />
    <path
       id="path157"
       d="m 106.79336,162.07638 c 0.80407,-0.0609 2.66108,-0.43896 3.16484,-0.83467 l -3.14542,-0.006 -0.0194,0.84116 z"
       style="fill:none;stroke:#8f9248;stroke-width:0.589757;stroke-linecap:butt;stroke-linejoin:miter;stroke-miterlimit:22.9256;stroke-dasharray:none;stroke-opacity:1" />
    <path
       id="path158"
       d="m 106.79359,162.07619 c 0.80408,-0.061 2.66107,-0.43896 3.16484,-0.83469 l -3.14541,-0.006 z"
       style="fill:#ffffff;fill-opacity:1;fill-rule:evenodd;stroke:none;stroke-width:0.153579" />
    <path
       id="path159"
       d="m 102.29259,162.05697 0.003,-0.81897 h -3.039499 c 0.59733,0.34153 2.257279,0.75424 3.036889,0.81927 z"
       style="fill:none;stroke:#8f9248;stroke-width:0.589757;stroke-linecap:butt;stroke-linejoin:miter;stroke-miterlimit:22.9256;stroke-dasharray:none;stroke-opacity:1" />
    <path
       id="path160"
       d="m 102.29281,162.05676 0.003,-0.81896 -3.039529,-3.1e-4 c 0.59735,0.34153 2.257309,0.75423 3.036899,0.81927"
       style="fill:#ffffff;fill-opacity:1;fill-rule:evenodd;stroke:none;stroke-width:0.153579" />
    <path
       id="path161"
       d="m 106.80403,143.832 0.8717,8.3e-4 0.32462,-1.37948 -1.19114,-0.002 -0.005,1.38044 z"
       style="fill:none;stroke:#8f9248;stroke-width:0.589757;stroke-linecap:butt;stroke-linejoin:miter;stroke-miterlimit:22.9256;stroke-dasharray:none;stroke-opacity:1" />
    <path
       id="path162"
       d="m 106.80426,143.83176 0.87168,7.8e-4 0.32464,-1.37946 -1.19114,-0.002 -0.005,1.38042 z"
       style="fill:#ffffff;fill-opacity:1;fill-rule:evenodd;stroke:none;stroke-width:0.153579" />
    <path
       id="path163"
       d="m 101.10802,154.94468 1.16065,0.0117 0.0248,-1.36016 -0.88431,-0.002 -0.3011,1.35012 z"
       style="fill:none;stroke:#8f9248;stroke-width:0.589757;stroke-linecap:butt;stroke-linejoin:miter;stroke-miterlimit:22.9256;stroke-dasharray:none;stroke-opacity:1" />
    <path
       id="path164"
       d="m 101.10825,154.94446 1.16061,0.0117 0.0248,-1.36013 -0.8843,-0.002 z"
       style="fill:#ffffff;fill-opacity:1;fill-rule:evenodd;stroke:none;stroke-width:0.153579" />
    <path
       id="path165"
       d="m 106.80164,154.94956 1.19575,-8.7e-4 -0.31215,-1.33863 -0.85888,-0.0219 -0.0247,1.36154 z"
       style="fill:none;stroke:#8f9248;stroke-width:0.589757;stroke-linecap:butt;stroke-linejoin:miter;stroke-miterlimit:22.9256;stroke-dasharray:none;stroke-opacity:1" />
    <path
       id="path166"
       d="m 106.80187,154.94933 1.19575,-8.7e-4 -0.31214,-1.33864 -0.85889,-0.0219 -0.0247,1.36152 z"
       style="fill:#ffffff;fill-opacity:1;fill-rule:evenodd;stroke:none;stroke-width:0.153579" />
    <path
       id="path167"
       d="m 101.43401,143.84292 0.82846,-0.006 0.0257,-1.37368 -1.14399,-0.0142 0.2898,1.39369 z"
       style="fill:none;stroke:#8f9248;stroke-width:0.589757;stroke-linecap:butt;stroke-linejoin:miter;stroke-miterlimit:22.9256;stroke-dasharray:none;stroke-opacity:1" />
    <path
       id="path168"
       d="m 101.43424,143.84268 0.82845,-0.006 0.0257,-1.37367 -1.14399,-0.0142 z"
       style="fill:#ffffff;fill-opacity:1;fill-rule:evenodd;stroke:none;stroke-width:0.153579" />
    <path
       id="path169"
       d="m 110.91356,154.88991 0.17944,0.003 h 0.24702 0.32942 l 0.62542,-0.0118 c -0.2462,-0.279 -1.53526,-1.11843 -1.98925,-1.20333 l 0.60795,1.21248 z"
       style="fill:none;stroke:#8f9248;stroke-width:0.589757;stroke-linecap:butt;stroke-linejoin:miter;stroke-miterlimit:22.9256;stroke-dasharray:none;stroke-opacity:1" />
    <path
       id="path170"
       d="m 110.9138,154.88969 0.17944,0.003 0.24702,-3.1e-4 0.32943,1.5e-4 0.6254,-0.0118 c -0.24619,-0.27901 -1.53527,-1.11843 -1.98925,-1.20332 l 0.60796,1.21247 z"
       style="fill:#ffffff;fill-opacity:1;fill-rule:evenodd;stroke:none;stroke-width:0.153579" />
    <path
       id="path171"
       d="m 96.936351,154.88177 1.14555,0.009 0.51553,-1.07556 c -0.50787,0.12839 -1.42282,0.79864 -1.66108,1.06676 z"
       style="fill:none;stroke:#8f9248;stroke-width:0.589757;stroke-linecap:butt;stroke-linejoin:miter;stroke-miterlimit:22.9256;stroke-dasharray:none;stroke-opacity:1" />
    <path
       id="path172"
       d="m 96.936541,154.88155 1.14556,0.009 0.51554,-1.07554 c -0.50787,0.12837 -1.42283,0.79862 -1.6611,1.06675"
       style="fill:#ffffff;fill-opacity:1;fill-rule:evenodd;stroke:none;stroke-width:0.153579" />
    <path
       id="path173"
       d="m 105.83235,154.94389 0.53612,0.008 0.0175,-1.34724 -0.53311,-0.0109 -0.0205,1.35042 z"
       style="fill:none;stroke:#8f9248;stroke-width:0.589757;stroke-linecap:butt;stroke-linejoin:miter;stroke-miterlimit:22.9256;stroke-dasharray:none;stroke-opacity:1" />
    <path
       id="path174"
       d="m 105.83257,154.94368 0.53613,0.008 0.0175,-1.34726 -0.53312,-0.0109 z"
       style="fill:#ffffff;fill-opacity:1;fill-rule:evenodd;stroke:none;stroke-width:0.153579" />
    <path
       id="path175"
       d="m 102.71193,154.93758 0.53114,0.0154 0.0189,-1.3523 -0.5333,-0.003 -0.0167,1.34014 z"
       style="fill:none;stroke:#8f9248;stroke-width:0.589757;stroke-linecap:butt;stroke-linejoin:miter;stroke-miterlimit:22.9256;stroke-dasharray:none;stroke-opacity:1" />
    <path
       id="path176"
       d="m 102.71214,154.93736 0.53115,0.0155 0.0189,-1.35231 -0.53331,-0.003 z"
       style="fill:#ffffff;fill-opacity:1;fill-rule:evenodd;stroke:none;stroke-width:0.153579" />
    <path
       id="path177"
       d="m 101.92181,147.5388 0.35829,0.0174 c 0.0373,-0.43987 0.0831,-1.1935 -0.0352,-1.59334 h -0.4124 l 0.0893,1.57617 z"
       style="fill:none;stroke:#8f9248;stroke-width:0.589757;stroke-linecap:butt;stroke-linejoin:miter;stroke-miterlimit:22.9256;stroke-dasharray:none;stroke-opacity:1" />
    <path
       id="path178"
       d="m 101.92204,147.53855 0.35828,0.0174 c 0.0373,-0.43986 0.0831,-1.19347 -0.0352,-1.59335 l -0.41241,-1.5e-4 0.0893,1.57615 z"
       style="fill:#ffffff;fill-opacity:1;fill-rule:evenodd;stroke:none;stroke-width:0.153579" />
    <path
       id="path179"
       d="m 106.8932,147.5522 c 0.37255,-0.0485 0.25341,-0.16513 0.28205,-0.61854 0.0208,-0.32836 0.0682,-0.64161 0.0842,-0.9738 l -0.36638,0.006 c -0.0122,0.0233 -0.0301,0.0292 -0.0339,0.0648 -0.004,0.0358 -0.0253,0.0464 -0.0297,0.064 -0.0282,0.11312 -0.0295,0.0951 -0.0388,0.22521 -0.0238,0.33007 -0.0735,0.98708 0.10247,1.23189 z"
       style="fill:none;stroke:#8f9248;stroke-width:0.589757;stroke-linecap:butt;stroke-linejoin:miter;stroke-miterlimit:22.9256;stroke-dasharray:none;stroke-opacity:1" />
    <path
       id="path180"
       d="m 106.89341,147.55196 c 0.37257,-0.0485 0.25342,-0.16511 0.28207,-0.61853 0.0208,-0.32838 0.0682,-0.6416 0.0842,-0.97381 l -0.36639,0.006 c -0.0122,0.0232 -0.0301,0.0292 -0.0339,0.0648 -0.004,0.0358 -0.0253,0.0464 -0.0297,0.064 -0.0282,0.1131 -0.0295,0.0951 -0.0388,0.22519 -0.0238,0.33009 -0.0734,0.9871 0.10248,1.23189"
       style="fill:#ffffff;fill-opacity:1;fill-rule:evenodd;stroke:none;stroke-width:0.153579" />
    <path
       id="path181"
       d="m 101.95225,151.23288 0.3461,-0.0142 -0.004,-1.34818 -0.34183,-8.7e-4 -0.12765,0.9897 c 0.0215,0.59223 -0.0111,0.19358 0.12779,0.37374 z"
       style="fill:none;stroke:#8f9248;stroke-width:0.589757;stroke-linecap:butt;stroke-linejoin:miter;stroke-miterlimit:22.9256;stroke-dasharray:none;stroke-opacity:1" />
    <path
       id="path182"
       d="m 101.95246,151.23265 0.34611,-0.0142 -0.004,-1.34816 -0.34182,-8.7e-4 -0.12764,0.9897 c 0.0215,0.59223 -0.0111,0.19359 0.12776,0.37374"
       style="fill:#ffffff;fill-opacity:1;fill-rule:evenodd;stroke:none;stroke-width:0.153579" />
    <path
       id="path183"
       d="m 106.83521,151.22791 0.36889,0.009 -0.0514,-1.12635 c -0.0874,-0.39403 0.0489,-0.13436 -0.1771,-0.25103 -0.14993,0.068 -0.18866,-0.055 -0.1817,0.58097 0.003,0.28331 -0.0128,0.51018 0.0414,0.78766 z"
       style="fill:none;stroke:#8f9248;stroke-width:0.589757;stroke-linecap:butt;stroke-linejoin:miter;stroke-miterlimit:22.9256;stroke-dasharray:none;stroke-opacity:1" />
    <path
       id="path184"
       d="m 106.83542,151.22768 0.36891,0.009 -0.0514,-1.12636 c -0.0874,-0.39402 0.0489,-0.13435 -0.17711,-0.25102 -0.14993,0.068 -0.18867,-0.055 -0.18172,0.58097 0.003,0.28332 -0.0127,0.51017 0.0414,0.78766"
       style="fill:#ffffff;fill-opacity:1;fill-rule:evenodd;stroke:none;stroke-width:0.153579" />
    <path
       id="path185"
       d="m 103.13981,152.16872 c 0.5417,-2.56542 2.40971,-2.41885 2.80195,0 v 4.81932 h -2.80195 c 0,-1.60646 0,-3.21291 0,-4.81932"
       style="fill:#231f20;fill-opacity:1;fill-rule:evenodd;stroke:none;stroke-width:0.153579" />
  </g>
</svg>
