<?xml version="1.0" standalone="no"?>
<!DOCTYPE svg PUBLIC "-//W3C//DTD SVG 20010904//EN"
 "http://www.w3.org/TR/2001/REC-SVG-20010904/DTD/svg10.dtd">
<svg version="1.0" xmlns="http://www.w3.org/2000/svg"
 width="427.000000pt" height="427.000000pt" viewBox="0 0 427.000000 427.000000"
 preserveAspectRatio="xMidYMid meet">

<g transform="translate(0.000000,427.000000) scale(0.100000,-0.100000)"
fill="#000000" stroke="none">
<path d="M1910 4234 c-501 -64 -930 -270 -1271 -613 -347 -348 -559 -793 -610
-1280 -16 -152 -6 -423 20 -566 82 -450 272 -816 586 -1130 211 -212 392 -337
660 -455 292 -129 556 -177 913 -167 237 7 376 31 591 102 543 181 979 563
1231 1080 150 306 212 577 214 920 0 248 -29 434 -105 668 -39 120 -143 347
-196 430 -347 540 -829 871 -1439 988 -86 17 -156 22 -334 24 -124 2 -241 1
-260 -1z m590 -88 c521 -99 952 -364 1273 -783 167 -218 311 -537 367 -814 31
-156 35 -204 34 -449 0 -190 -4 -242 -22 -337 -86 -435 -269 -782 -572 -1084
-307 -307 -674 -496 -1115 -575 -125 -22 -405 -30 -546 -15 -611 64 -1152 393
-1498 911 -83 124 -133 218 -191 364 -294 736 -143 1569 387 2146 327 355 722
568 1193 644 146 24 152 24 360 21 158 -2 220 -8 330 -29z"/>
<path d="M2050 3985 l0 -85 44 0 c63 0 96 29 96 84 0 61 -26 86 -90 86 l-50 0
0 -85z m94 49 c16 -16 21 -71 8 -90 -10 -15 -40 -24 -57 -18 -11 5 -15 22 -15
65 0 56 1 59 24 59 14 0 32 -7 40 -16z"/>
<path d="M2293 4055 c-26 -18 -47 -77 -38 -105 20 -62 97 -80 140 -34 37 40
34 94 -6 128 -35 29 -65 33 -96 11z m81 -31 c28 -27 16 -94 -19 -108 -8 -3
-26 -1 -40 4 -21 8 -25 16 -25 53 0 24 5 48 12 55 17 17 54 15 72 -4z"/>
<path d="M1785 4030 c-15 -16 -16 -25 -7 -44 8 -19 22 -26 57 -32 40 -5 46 -9
43 -28 -4 -25 -32 -32 -64 -15 -13 7 -27 9 -31 5 -13 -12 28 -36 62 -36 44 0
67 20 63 54 -3 33 -17 42 -70 51 -23 3 -38 11 -38 20 0 19 35 28 59 16 26 -14
31 -14 31 3 0 31 -78 36 -105 6z"/>
<path d="M1623 4007 c-23 -7 -45 -15 -48 -19 -7 -6 29 -145 40 -156 8 -9 115
28 115 40 0 5 -6 8 -14 5 -35 -14 -86 -19 -86 -9 0 6 -2 17 -6 25 -3 10 8 18
41 27 32 9 43 16 36 23 -7 7 -22 7 -46 0 -31 -10 -36 -9 -46 9 -13 23 -15 21
39 37 23 6 42 16 42 21 0 12 -13 11 -67 -3z"/>
<path d="M2583 3995 c-29 -20 -46 -75 -34 -108 20 -52 83 -73 115 -38 20 22 4
40 -19 21 -8 -6 -24 -10 -37 -8 -19 2 -24 10 -26 40 -4 52 12 78 49 78 22 0
32 -5 36 -20 6 -22 33 -28 33 -7 0 18 -12 32 -37 46 -29 15 -54 14 -80 -4z"/>
<path d="M1405 3933 c-22 -9 -41 -17 -43 -18 -1 -1 11 -35 28 -76 16 -41 30
-75 30 -76 0 -2 7 -3 16 -3 11 0 14 5 10 16 -19 50 -18 64 4 64 12 0 35 -9 51
-21 18 -13 36 -18 47 -14 16 6 16 8 -2 18 -52 33 -61 44 -47 61 11 13 11 22 3
41 -14 29 -39 31 -97 8z m73 -34 c2 -14 -34 -39 -58 -39 -16 0 -23 42 -9 51
21 14 63 6 67 -12z"/>
<path d="M2766 3909 c-31 -36 -35 -88 -8 -112 50 -45 110 -40 137 12 23 46 19
86 -11 110 -40 31 -87 28 -118 -10z m106 -13 c22 -33 -14 -106 -52 -106 -50 0
-66 65 -25 106 26 26 60 26 77 0z"/>
<path d="M1233 3852 c-58 -29 -70 -47 -24 -37 27 6 31 2 61 -52 39 -70 36 -66
49 -58 7 4 0 27 -19 65 -35 70 -36 77 -10 85 22 7 28 25 8 24 -7 0 -37 -12
-65 -27z"/>
<path d="M2960 3790 c-18 -38 -32 -71 -29 -73 16 -12 82 -47 90 -47 21 0 7 19
-26 34 -28 14 -33 20 -26 34 16 30 51 111 51 116 0 4 -6 6 -13 6 -7 0 -28 -31
-47 -70z"/>
<path d="M1908 3765 c-627 -86 -1163 -535 -1347 -1131 -174 -559 -57 -1137
321 -1581 230 -271 563 -467 926 -543 127 -27 383 -37 518 -21 381 48 697 203
970 475 240 241 384 504 455 834 26 122 37 416 20 544 -34 257 -130 504 -285
733 -85 126 -292 331 -421 417 -351 233 -752 328 -1157 273z m415 -7 c9 0 17
-3 17 -8 0 -5 7 -7 15 -4 28 11 258 -47 377 -94 156 -63 398 -204 398 -233 0
-5 5 -9 10 -9 15 0 29 -12 144 -125 102 -100 154 -161 191 -221 11 -17 27 -42
36 -55 257 -385 327 -911 182 -1371 -13 -43 -28 -78 -33 -78 -5 0 -7 -7 -4
-15 6 -15 -84 -203 -139 -290 -92 -146 -294 -360 -432 -457 -100 -71 -200
-128 -224 -128 -12 0 -21 -5 -21 -10 0 -11 -9 -15 -135 -62 -492 -184 -1028
-122 -1478 168 -127 82 -314 254 -301 276 4 6 3 8 -3 5 -14 -9 -60 43 -134
148 -69 100 -169 285 -169 315 0 10 -5 22 -10 25 -8 5 -7 11 1 21 10 12 10 15
-1 12 -15 -3 -30 33 -59 147 -28 107 -31 131 -18 145 9 10 9 11 -1 6 -15 -9
-30 23 -15 33 6 3 13 17 17 31 l7 25 -14 -24 c-14 -24 -14 -24 -22 15 -7 42
-9 339 -2 352 3 4 8 35 12 69 3 33 13 87 21 120 8 32 19 76 25 98 5 22 13 49
18 60 5 11 15 36 21 55 34 96 97 226 146 299 16 24 34 51 39 60 30 47 100 134
116 144 10 6 19 16 19 22 0 17 88 97 100 90 6 -3 10 3 10 14 0 12 4 21 8 21 5
0 24 15 44 33 66 62 103 87 121 83 11 -3 16 -2 13 1 -8 8 24 43 39 43 7 0 25
10 41 22 33 27 183 100 274 135 82 31 287 83 326 82 39 -1 168 12 173 17 3 2
57 1 120 -2 64 -4 124 -6 134 -6z"/>
<path d="M2225 3730 c-3 -5 -1 -10 4 -10 6 0 11 5 11 10 0 6 -2 10 -4 10 -3 0
-8 -4 -11 -10z"/>
<path d="M1870 3700 c-18 -12 -2 -12 25 0 13 6 15 9 5 9 -8 0 -22 -4 -30 -9z"/>
<path d="M2405 3680 c-3 -6 1 -7 9 -4 18 7 21 14 7 14 -6 0 -13 -4 -16 -10z"/>
<path d="M1580 3610 c0 -5 7 -7 15 -4 8 4 15 8 15 10 0 2 -7 4 -15 4 -8 0 -15
-4 -15 -10z"/>
<path d="M2015 3600 c-8 -13 5 -13 25 0 13 8 13 10 -2 10 -9 0 -20 -4 -23 -10z"/>
<path d="M1415 3530 c-3 -6 1 -7 9 -4 18 7 21 14 7 14 -6 0 -13 -4 -16 -10z"/>
<path d="M1486 3511 c-4 -5 3 -7 14 -4 23 6 26 13 6 13 -8 0 -17 -4 -20 -9z"/>
<path d="M1624 3492 c-16 -2 -35 -37 -91 -170 -98 -231 -95 -212 -34 -212 48
0 51 2 65 35 l15 35 76 0 76 0 15 -35 c14 -33 17 -35 64 -35 28 0 50 4 50 10
0 5 -15 44 -34 87 -18 43 -53 126 -77 184 -47 114 -46 114 -125 101z m61 -192
l14 -40 -44 0 -45 0 20 53 c11 28 20 54 20 57 1 10 21 -31 35 -70z"/>
<path d="M1540 3480 c-8 -5 -12 -11 -9 -14 2 -3 11 -1 19 4 8 5 12 11 9 14 -2
3 -11 1 -19 -4z"/>
<path d="M1910 3300 l0 -190 50 0 50 0 0 54 0 54 58 4 c109 8 168 63 159 151
-8 89 -58 117 -211 117 l-106 0 0 -190z m198 94 c50 -35 13 -98 -55 -92 -36 3
-38 5 -41 42 -2 21 -1 44 2 52 7 19 66 18 94 -2z"/>
<path d="M2280 3300 l0 -190 50 0 50 0 0 105 c0 58 3 105 8 105 4 0 24 -27 46
-60 21 -33 42 -62 46 -65 4 -3 27 24 50 60 23 36 47 62 52 59 5 -3 8 -48 6
-102 l-3 -97 53 -3 52 -3 0 190 0 191 -57 0 -58 -1 -40 -66 c-22 -37 -45 -68
-50 -69 -6 -2 -28 27 -50 64 l-40 67 -58 3 -57 3 0 -191z"/>
<path d="M3140 3290 c-13 -8 -12 -10 3 -10 9 0 17 5 17 10 0 12 -1 12 -20 0z"/>
<path d="M1138 3223 c7 -3 16 -2 19 1 4 3 -2 6 -13 5 -11 0 -14 -3 -6 -6z"/>
<path d="M3300 3220 c-9 -6 -10 -10 -3 -10 6 0 15 5 18 10 8 12 4 12 -15 0z"/>
<path d="M2841 3207 c-8 -10 -7 -14 4 -14 8 0 15 6 15 14 0 7 -2 13 -4 13 -2
0 -9 -6 -15 -13z"/>
<path d="M3185 3190 c-3 -6 1 -7 9 -4 18 7 21 14 7 14 -6 0 -13 -4 -16 -10z"/>
<path d="M2840 3135 c-11 -13 -10 -14 4 -9 9 3 16 10 16 15 0 13 -6 11 -20 -6z"/>
<path d="M1235 3100 c-133 -32 -201 -169 -154 -312 7 -21 16 -38 22 -38 5 0 7
-6 4 -14 -4 -9 3 -16 16 -20 17 -5 19 -8 8 -15 -9 -6 -5 -10 15 -14 16 -3 47
-12 69 -21 53 -20 116 -20 160 1 19 9 37 14 41 10 3 -3 -7 -25 -24 -49 -16
-24 -33 -54 -37 -68 -4 -14 -11 -29 -15 -35 -4 -5 -13 -35 -20 -65 -7 -30 -16
-70 -21 -87 l-7 -33 53 0 53 0 8 43 7 42 18 -42 c10 -24 24 -43 31 -43 7 0 57
-2 110 -4 l97 -4 76 74 c42 41 82 74 88 74 7 0 24 6 38 14 14 7 37 16 52 20
20 5 29 16 40 54 10 34 10 52 3 65 -6 10 -55 39 -108 64 -53 26 -94 51 -91 56
9 14 161 1 206 -18 37 -15 37 -15 47 10 24 64 23 73 -10 90 -39 20 -83 27
-175 25 -125 -2 -245 -42 -334 -112 -32 -24 -35 -19 -14 23 21 42 29 153 13
194 -6 17 -12 32 -13 35 -1 2 -15 17 -31 32 -56 54 -153 84 -221 68z"/>
<path d="M2825 3086 c-49 -14 -83 -32 -114 -63 -14 -13 -31 -21 -38 -19 -8 3
-11 1 -8 -5 4 -5 1 -16 -5 -24 -9 -11 -9 -15 -1 -15 15 0 14 -19 -4 -53 -10
-20 -12 -35 -5 -53 6 -14 10 -36 10 -49 0 -13 11 -37 25 -53 33 -39 32 -47 -2
-23 -41 29 -117 74 -123 74 -3 -1 -22 8 -42 18 -21 11 -65 22 -98 26 -52 5
-58 8 -48 21 11 13 10 14 -9 4 -12 -7 -41 -12 -66 -12 -44 0 -143 -25 -151
-38 -2 -4 5 -31 16 -60 17 -44 22 -51 31 -38 15 20 120 35 179 26 l43 -6 -53
-26 c-28 -15 -49 -21 -46 -15 3 7 -1 4 -10 -7 -10 -12 -23 -17 -37 -13 -25 7
-49 -1 -49 -15 0 -6 6 -6 14 1 9 7 17 8 20 2 3 -5 -6 -18 -21 -29 l-26 -19 19
-59 c18 -55 21 -59 59 -68 49 -11 130 -68 129 -89 -1 -9 4 -13 12 -10 8 3 21
-7 31 -25 l18 -31 114 -3 c117 -3 137 2 143 36 5 33 28 31 28 -3 0 -30 1 -31
50 -31 50 0 50 0 50 33 0 43 -22 121 -48 176 -12 25 -22 50 -22 57 0 7 -6 17
-12 21 -17 10 -41 53 -30 53 4 0 12 -4 17 -8 28 -24 97 -35 148 -25 34 7 54 7
58 1 4 -7 9 -6 13 1 4 6 4 11 0 11 -4 0 7 11 26 25 19 14 38 32 43 40 4 8 14
15 22 15 8 0 12 6 9 14 -3 7 1 29 9 48 20 49 13 130 -17 176 -42 65 -92 104
-139 109 -23 2 -49 5 -57 7 -8 1 -33 -2 -55 -8z"/>
<path d="M3286 3075 c-14 -11 -16 -15 -5 -15 8 0 23 7 33 15 14 11 16 15 5 15
-8 0 -23 -7 -33 -15z"/>
<path d="M2257 3016 c-4 -10 -1 -13 8 -9 8 3 12 9 9 14 -7 12 -11 11 -17 -5z"/>
<path d="M2366 2953 c-6 -14 -5 -15 5 -6 7 7 10 15 7 18 -3 3 -9 -2 -12 -12z"/>
<path d="M2415 2960 c3 -5 8 -10 11 -10 2 0 4 5 4 10 0 6 -5 10 -11 10 -5 0
-7 -4 -4 -10z"/>
<path d="M1964 2935 c-18 -14 -18 -14 4 -8 12 3 22 9 22 14 0 12 -3 11 -26 -6z"/>
<path d="M3540 2799 c0 -5 5 -7 10 -4 6 3 10 8 10 11 0 2 -4 4 -10 4 -5 0 -10
-5 -10 -11z"/>
<path d="M2080 2764 c-6 -14 -10 -30 -10 -35 0 -5 -4 -9 -10 -9 -5 0 -7 -7 -4
-15 4 -8 1 -15 -6 -15 -6 0 -9 -4 -6 -8 5 -9 -16 -90 -33 -127 -14 -29 -48
-134 -56 -172 -3 -18 -11 -33 -15 -33 -5 0 -7 -7 -4 -15 4 -8 1 -15 -6 -15 -6
0 -8 -4 -5 -10 4 -7 -83 -10 -254 -10 -145 0 -261 -4 -261 -9 0 -5 12 -17 27
-27 15 -9 32 -21 38 -26 21 -19 202 -152 260 -191 92 -63 89 -55 64 -141 -13
-44 -26 -73 -32 -69 -6 3 -7 1 -4 -5 4 -5 -15 -82 -43 -170 -27 -88 -50 -165
-50 -171 0 -12 46 16 84 51 11 10 23 18 27 18 4 0 14 6 21 13 24 24 281 207
290 207 17 0 58 -37 50 -45 -4 -5 -1 -5 6 -1 7 4 25 -2 42 -16 16 -13 48 -37
72 -54 24 -17 87 -63 140 -102 53 -40 101 -72 105 -72 4 0 8 11 8 25 0 14 -3
25 -6 25 -4 0 -10 15 -14 33 -10 43 -9 39 -23 65 -7 12 -10 22 -7 22 2 0 -4
24 -14 53 -10 28 -24 72 -31 97 -8 25 -17 50 -21 55 -4 6 -12 29 -17 50 -5 22
-13 49 -18 59 -6 16 -4 18 11 12 11 -4 16 -4 13 0 -9 8 4 21 83 77 36 26 70
43 74 39 5 -4 5 -1 1 6 -4 6 -3 12 3 12 5 0 16 6 23 13 7 7 54 42 103 77 50
36 93 69 97 75 5 7 -81 12 -255 15 l-262 5 -3 33 c-2 18 -7 30 -12 27 -4 -3
-7 3 -6 12 2 10 -1 20 -5 23 -5 3 -10 15 -12 25 -1 11 -5 25 -9 30 -14 22 -68
218 -62 226 3 5 1 9 -5 9 -5 0 -17 23 -26 50 -9 28 -19 50 -21 50 -2 0 -9 -12
-14 -26z m27 -448 c-6 -14 5 -15 36 -1 24 10 34 -2 19 -25 -25 -41 -7 -67 24
-35 16 15 59 21 52 8 -2 -5 -16 -35 -31 -67 -16 -33 -29 -71 -29 -86 -1 -36
21 -100 35 -100 23 0 77 -55 77 -78 0 -25 -52 -82 -75 -82 -7 0 -15 -5 -17
-12 -4 -11 -169 -17 -213 -7 -76 18 -132 70 -121 113 3 13 23 35 44 50 22 15
44 36 49 48 13 30 -1 126 -26 178 -11 24 -21 45 -21 47 0 8 40 2 45 -7 3 -5
15 -15 26 -21 19 -10 20 -8 16 18 -3 15 -8 36 -12 46 -7 16 -4 18 29 12 24 -5
36 -3 36 4 0 6 14 11 31 11 23 0 30 -4 26 -14z"/>
<path d="M2057 2082 c-12 -13 -17 -37 -17 -80 l0 -62 35 0 35 0 0 63 c0 49 -4
68 -18 81 -18 15 -20 15 -35 -2z"/>
<path d="M3438 2753 c7 -3 16 -2 19 1 4 3 -2 6 -13 5 -11 0 -14 -3 -6 -6z"/>
<path d="M3456 2703 c-6 -14 -5 -15 5 -6 7 7 10 15 7 18 -3 3 -9 -2 -12 -12z"/>
<path d="M915 2680 c-3 -5 1 -10 9 -10 9 0 16 5 16 10 0 6 -4 10 -9 10 -6 0
-13 -4 -16 -10z"/>
<path d="M835 2641 c-3 -5 -2 -12 3 -15 5 -3 9 1 9 9 0 17 -3 19 -12 6z"/>
<path d="M3650 2640 c-13 -8 -12 -10 3 -10 9 0 17 5 17 10 0 12 -1 12 -20 0z"/>
<path d="M1165 2620 c-3 -6 1 -7 9 -4 18 7 21 14 7 14 -6 0 -13 -4 -16 -10z"/>
<path d="M700 2560 c-9 -6 -10 -10 -3 -10 6 0 15 5 18 10 8 12 4 12 -15 0z"/>
<path d="M3391 2544 c0 -11 3 -14 6 -6 3 7 2 16 -1 19 -3 4 -6 -2 -5 -13z"/>
<path d="M2985 2480 c-3 -6 1 -7 9 -4 18 7 21 14 7 14 -6 0 -13 -4 -16 -10z"/>
<path d="M2880 2476 c0 -2 7 -7 16 -10 8 -3 12 -2 9 4 -6 10 -25 14 -25 6z"/>
<path d="M2315 2410 c-3 -5 -1 -10 4 -10 6 0 11 5 11 10 0 6 -2 10 -4 10 -3 0
-8 -4 -11 -10z"/>
<path d="M1120 2319 c0 -5 5 -7 10 -4 6 3 10 8 10 11 0 2 -4 4 -10 4 -5 0 -10
-5 -10 -11z"/>
<path d="M3594 2298 l-19 -23 23 19 c12 11 22 21 22 23 0 8 -8 2 -26 -19z"/>
<path d="M940 2279 c0 -5 5 -7 10 -4 6 3 10 8 10 11 0 2 -4 4 -10 4 -5 0 -10
-5 -10 -11z"/>
<path d="M1305 2243 c1 -15 14 -59 30 -97 25 -63 26 -72 14 -110 -7 -22 -17
-50 -23 -61 -5 -11 -11 -29 -12 -40 -5 -38 -13 -75 -18 -84 -4 -5 -2 -12 4
-16 6 -4 8 -10 6 -14 -3 -3 2 -39 9 -80 16 -80 68 -198 112 -250 27 -31 29
-32 43 -15 14 16 13 17 -5 10 -15 -5 -17 -4 -8 5 19 19 37 0 18 -21 -15 -17
-14 -20 11 -43 15 -14 31 -24 36 -21 4 3 8 0 8 -5 0 -6 6 -11 14 -11 8 0 16
-5 18 -12 3 -7 36 83 74 198 61 186 67 213 54 225 -8 8 -19 13 -24 11 -5 -2
-4 3 3 11 9 12 9 16 -1 19 -7 3 -13 11 -13 19 -2 30 -18 95 -28 107 -6 8 -6
12 2 12 6 0 11 5 11 11 0 6 -8 8 -17 5 -15 -5 -15 -3 2 9 18 14 18 16 2 32 -9
9 -20 13 -24 9 -4 -4 -1 -12 7 -17 11 -8 8 -8 -10 -3 -22 6 -23 5 -11 -10 12
-14 11 -16 -9 -16 -13 0 -24 -8 -27 -20 -3 -11 -9 -20 -14 -20 -5 0 -9 -7 -9
-15 0 -7 -6 -18 -14 -22 -7 -4 -31 -45 -52 -91 -21 -45 -43 -81 -49 -79 -15 6
-14 165 2 213 8 23 27 54 43 69 17 16 30 35 30 42 0 28 -67 112 -119 149 -71
50 -68 49 -66 17z m58 -238 c-3 -9 -8 -14 -10 -11 -3 3 -2 9 2 15 9 16 15 13
8 -4z m-9 -40 c-4 -8 -8 -15 -10 -15 -2 0 -4 7 -4 15 0 8 4 15 10 15 5 0 7 -7
4 -15z m29 -25 c-3 -11 -9 -17 -15 -14 -5 3 -4 12 3 20 16 19 18 18 12 -6z
m162 -75 c0 -14 -3 -25 -7 -25 -5 0 -8 11 -8 25 0 14 3 25 8 25 4 0 7 -11 7
-25z m75 -55 c0 -5 -2 -10 -4 -10 -3 0 -8 5 -11 10 -3 6 -1 10 4 10 6 0 11 -4
11 -10z m40 -20 c0 -5 -2 -10 -4 -10 -3 0 -8 5 -11 10 -3 6 -1 10 4 10 6 0 11
-4 11 -10z m-201 -41 c-7 -4 -16 -5 -19 -2 -3 3 1 8 8 10 6 3 13 12 13 21 1
14 2 13 6 -2 3 -10 -1 -22 -8 -27z m219 4 c-18 -42 -23 -45 -24 -12 -1 20 2
26 7 17 7 -10 9 -9 9 5 0 9 4 17 10 17 6 0 5 -11 -2 -27z m-328 -7 c0 -3 -4
-8 -10 -11 -5 -3 -10 -1 -10 4 0 6 5 11 10 11 6 0 10 -2 10 -4z m250 -27 c0
-6 -4 -7 -10 -4 -5 3 -10 11 -10 16 0 6 5 7 10 4 6 -3 10 -11 10 -16z m-233
-11 c-3 -8 -6 -5 -6 6 -1 11 2 17 5 13 3 -3 4 -12 1 -19z m273 -8 c0 -5 -4
-10 -10 -10 -5 0 -10 5 -10 10 0 6 5 10 10 10 6 0 10 -4 10 -10z m-18 -45 c3
-13 1 -22 -3 -19 -9 5 -13 44 -5 44 2 0 6 -11 8 -25z m-212 -17 c0 -5 -7 -3
-15 6 -8 8 -15 18 -15 22 0 3 7 1 15 -6 8 -7 15 -17 15 -22z m-23 -29 c1 -19
1 -20 -4 -4 -3 11 -10 24 -17 28 -7 6 -6 7 4 4 8 -2 16 -14 17 -28z m225 -51
c-7 -7 -12 -8 -12 -2 0 6 3 14 7 17 3 4 9 5 12 2 2 -3 -1 -11 -7 -17z m-35
-45 c-4 -3 -2 -12 4 -19 8 -9 7 -18 -1 -31 -10 -16 -11 -16 -7 4 3 13 1 26 -4
29 -9 5 -3 24 8 24 4 0 3 -3 0 -7z"/>
<path d="M3206 2254 c-5 -12 -2 -15 10 -10 8 3 18 6 20 6 3 0 2 5 -1 10 -9 15
-22 12 -29 -6z"/>
<path d="M2805 2219 c-22 -17 -46 -34 -53 -38 -11 -6 -6 -18 19 -54 35 -49 43
-51 53 -13 3 14 11 38 17 53 13 31 19 83 10 83 -3 0 -24 -14 -46 -31z"/>
<path d="M1155 2220 c-3 -5 -1 -10 4 -10 6 0 11 5 11 10 0 6 -2 10 -4 10 -3 0
-8 -4 -11 -10z"/>
<path d="M705 2090 c3 -5 8 -10 11 -10 2 0 4 5 4 10 0 6 -5 10 -11 10 -5 0 -7
-4 -4 -10z"/>
<path d="M3060 2069 c0 -5 5 -7 10 -4 6 3 10 8 10 11 0 2 -4 4 -10 4 -5 0 -10
-5 -10 -11z"/>
<path d="M3540 2069 c0 -5 5 -7 10 -4 6 3 10 8 10 11 0 2 -4 4 -10 4 -5 0 -10
-5 -10 -11z"/>
<path d="M3575 2050 c-3 -6 1 -7 9 -4 18 7 21 14 7 14 -6 0 -13 -4 -16 -10z"/>
<path d="M3125 2040 c-3 -5 -1 -10 4 -10 6 0 11 5 11 10 0 6 -2 10 -4 10 -3 0
-8 -4 -11 -10z"/>
<path d="M775 1960 c-8 -13 5 -13 25 0 13 8 13 10 -2 10 -9 0 -20 -4 -23 -10z"/>
<path d="M3320 1951 c0 -6 4 -12 8 -15 5 -3 9 1 9 9 0 8 -4 15 -9 15 -4 0 -8
-4 -8 -9z"/>
<path d="M3693 1946 c-9 -11 -8 -15 5 -18 12 -4 18 1 18 13 0 22 -6 23 -23 5z"/>
<path d="M3390 1920 c-9 -6 -10 -10 -3 -10 6 0 15 5 18 10 8 12 4 12 -15 0z"/>
<path d="M771 1866 c-9 -11 -9 -16 1 -22 7 -4 10 -4 6 1 -4 4 -3 14 3 22 6 7
9 13 6 13 -2 0 -10 -6 -16 -14z"/>
<path d="M3675 1860 c-16 -11 -25 -20 -20 -20 10 0 64 39 55 40 -3 0 -18 -9
-35 -20z"/>
<path d="M665 1800 c-3 -6 1 -7 9 -4 18 7 21 14 7 14 -6 0 -13 -4 -16 -10z"/>
<path d="M710 1779 c0 -5 5 -7 10 -4 6 3 10 8 10 11 0 2 -4 4 -10 4 -5 0 -10
-5 -10 -11z"/>
<path d="M3451 1781 c-8 -5 -9 -11 -3 -15 5 -3 12 1 16 9 6 17 6 18 -13 6z"/>
<path d="M3670 1749 c0 -5 5 -7 10 -4 6 3 10 8 10 11 0 2 -4 4 -10 4 -5 0 -10
-5 -10 -11z"/>
<path d="M3580 1720 c-9 -6 -10 -10 -3 -10 6 0 15 5 18 10 8 12 4 12 -15 0z"/>
<path d="M2965 1660 c-3 -6 1 -7 9 -4 18 7 21 14 7 14 -6 0 -13 -4 -16 -10z"/>
<path d="M3066 1653 c-6 -14 -5 -15 5 -6 7 7 10 15 7 18 -3 3 -9 -2 -12 -12z"/>
<path d="M1977 1614 c-21 -14 -35 -30 -31 -36 4 -6 3 -8 -4 -4 -5 3 -31 -10
-56 -29 -26 -19 -50 -35 -55 -35 -14 0 -41 -36 -34 -45 5 -4 2 -5 -4 -1 -11 6
-44 -12 -95 -54 -13 -11 -15 -16 -5 -23 8 -5 5 -6 -8 -3 -11 3 -30 -3 -44 -13
-18 -14 -21 -22 -14 -36 7 -12 13 -14 17 -6 5 7 13 8 24 2 9 -4 48 -14 85 -22
59 -11 70 -11 78 2 5 9 9 10 9 2 0 -17 105 -9 152 11 9 4 21 5 26 2 5 -3 16 2
25 12 14 16 13 20 -22 49 -35 29 -41 31 -77 22 -21 -6 -50 -10 -64 -9 -59 4
-107 3 -117 -3 -6 -4 -16 -1 -22 7 -9 11 -8 15 6 21 22 10 44 16 61 17 6 1 12
8 12 15 0 8 4 12 9 9 5 -4 17 -3 27 1 15 5 15 8 2 17 -13 10 -9 16 26 40 31
21 35 22 15 4 -15 -13 -24 -29 -21 -37 3 -10 9 -8 23 10 15 18 18 19 12 5 -4
-13 -3 -17 5 -12 7 4 12 13 12 20 0 8 10 16 23 20 18 5 20 8 7 16 -9 6 -10 10
-3 10 6 0 14 -4 18 -10 3 -5 15 0 26 11 11 11 24 17 28 14 5 -3 7 3 4 14 -3
10 1 22 8 26 8 6 10 4 4 -6 -8 -12 -6 -12 8 0 20 16 20 16 -14 24 -18 5 -36
-1 -62 -19z m53 12 c0 -2 -7 -7 -16 -10 -8 -3 -12 -2 -9 4 6 10 25 14 25 6z
m-90 -240 c0 -3 -4 -8 -10 -11 -5 -3 -10 -1 -10 4 0 6 5 11 10 11 6 0 10 -2
10 -4z m55 -6 c3 -5 1 -10 -4 -10 -6 0 -11 5 -11 10 0 6 2 10 4 10 3 0 8 -4
11 -10z m-87 -20 c7 -11 8 -20 2 -20 -5 0 -7 -8 -4 -17 5 -15 4 -15 -4 -3 -6
8 -8 18 -5 22 2 5 -1 15 -7 23 -7 8 -8 15 -4 15 5 0 15 -9 22 -20z m-188 6 c0
-3 -4 -8 -10 -11 -5 -3 -10 -1 -10 4 0 6 5 11 10 11 6 0 10 -2 10 -4z m254 -4
c2 -4 0 -14 -6 -22 -8 -12 -9 -12 -5 2 3 9 1 19 -6 22 -9 3 -9 5 0 5 6 1 14
-3 17 -7z m-107 -8 c-3 -3 -12 -4 -19 -1 -8 3 -5 6 6 6 11 1 17 -2 13 -5z
m-37 -8 c0 -2 -7 -9 -15 -16 -13 -11 -14 -10 -9 4 5 14 24 23 24 12z m120 -11
c0 -8 -2 -15 -4 -15 -2 0 -6 7 -10 15 -3 8 -1 15 4 15 6 0 10 -7 10 -15z m-67
-8 c3 -8 -1 -14 -9 -14 -15 0 -18 9 -7 20 9 9 10 9 16 -6z"/>
<path d="M1316 1554 c-4 -10 -1 -14 6 -12 15 5 23 28 10 28 -5 0 -13 -7 -16
-16z"/>
<path d="M1176 1480 c-20 -18 -34 -36 -31 -40 3 -5 0 -12 -6 -16 -8 -4 -9 -3
-5 4 4 7 3 12 -3 12 -8 0 -41 -49 -46 -70 -1 -3 -6 -14 -11 -25 -14 -33 -8
-145 8 -145 4 0 8 -6 8 -14 0 -18 61 -83 81 -88 8 -2 17 -7 20 -12 4 -5 17
-10 30 -12 13 -2 36 -7 51 -10 43 -10 145 25 165 55 9 14 22 30 30 34 7 4 13
15 13 23 0 8 7 29 16 45 13 25 13 33 2 47 -11 13 -11 14 1 7 14 -8 14 -7 -4
83 -8 41 -105 136 -140 138 -5 0 -26 4 -46 8 -24 5 -45 4 -59 -4 -17 -9 -24
-9 -30 0 -5 8 -18 2 -44 -20z m110 -30 c8 0 14 -5 14 -10 0 -7 -6 -7 -20 0
-11 6 -20 16 -19 23 0 9 2 9 6 0 2 -7 11 -13 19 -13z m-46 0 c0 -5 -5 -10 -11
-10 -5 0 -7 5 -4 10 3 6 8 10 11 10 2 0 4 -4 4 -10z m140 -20 c0 -5 -2 -10 -4
-10 -3 0 -8 5 -11 10 -3 6 -1 10 4 10 6 0 11 -4 11 -10z m56 -60 c0 -12 -4
-16 -9 -11 -5 5 -6 14 -3 20 10 15 12 14 12 -9z m42 -74 l-1 -41 -4 40 c-3 22
-10 47 -16 55 -11 13 -10 13 6 1 12 -9 16 -26 15 -55z m-41 -108 c-3 -7 -5 -2
-5 12 0 14 2 19 5 13 2 -7 2 -19 0 -25z m-287 -48 c0 -5 -2 -10 -4 -10 -3 0
-8 5 -11 10 -3 6 -1 10 4 10 6 0 11 -4 11 -10z m145 -50 c-3 -5 -12 -10 -18
-10 -7 0 -6 4 3 10 19 12 23 12 15 0z m54 7 c-2 -1 -13 -9 -24 -17 -19 -14
-19 -14 -6 3 7 9 18 17 24 17 6 0 8 -1 6 -3z"/>
<path d="M3220 1389 c0 -5 5 -7 10 -4 6 3 10 8 10 11 0 2 -4 4 -10 4 -5 0 -10
-5 -10 -11z"/>
<path d="M1008 1383 c7 -3 16 -2 19 1 4 3 -2 6 -13 5 -11 0 -14 -3 -6 -6z"/>
<path d="M705 1370 c-3 -5 -1 -10 4 -10 6 0 11 5 11 10 0 6 -2 10 -4 10 -3 0
-8 -4 -11 -10z"/>
<path d="M1695 1270 c-3 -5 -1 -10 4 -10 6 0 11 5 11 10 0 6 -2 10 -4 10 -3 0
-8 -4 -11 -10z"/>
<path d="M2595 1220 c-3 -6 1 -7 9 -4 18 7 21 14 7 14 -6 0 -13 -4 -16 -10z"/>
<path d="M2625 1190 c-3 -5 -1 -10 4 -10 6 0 11 5 11 10 0 6 -2 10 -4 10 -3 0
-8 -4 -11 -10z"/>
<path d="M3205 1190 c-3 -6 1 -7 9 -4 18 7 21 14 7 14 -6 0 -13 -4 -16 -10z"/>
<path d="M1045 1180 c-3 -5 -1 -10 4 -10 6 0 11 5 11 10 0 6 -2 10 -4 10 -3 0
-8 -4 -11 -10z"/>
<path d="M3339 1153 c-13 -16 -12 -17 4 -4 9 7 17 15 17 17 0 8 -8 3 -21 -13z"/>
<path d="M1607 1125 c-141 -50 -173 -250 -55 -338 85 -62 182 -60 255 6 l35
33 -38 26 -37 27 -25 -20 c-37 -29 -102 -26 -132 6 -34 36 -34 113 -2 148 35
37 67 41 117 17 l44 -21 31 22 c17 13 29 30 28 38 -5 23 -105 71 -147 71 -20
-1 -53 -7 -74 -15z"/>
<path d="M2433 1121 c-70 -32 -95 -114 -50 -166 14 -17 51 -36 102 -53 64 -22
80 -31 80 -47 0 -30 -70 -33 -127 -5 l-43 21 -22 -28 c-13 -15 -23 -33 -23
-39 0 -22 101 -56 165 -56 100 0 155 42 155 119 0 53 -35 88 -108 108 -87 24
-104 33 -100 53 4 23 65 28 114 7 20 -8 38 -14 39 -13 1 2 11 17 23 34 26 38
18 48 -54 70 -63 19 -101 17 -151 -5z"/>
<path d="M1820 1126 c0 -2 7 -7 16 -10 8 -3 12 -2 9 4 -6 10 -25 14 -25 6z"/>
<path d="M1890 940 l0 -190 50 0 50 0 0 105 c0 122 7 126 60 35 19 -33 38 -60
41 -60 4 0 26 29 49 65 24 36 45 63 49 59 3 -3 6 -49 6 -102 l1 -97 52 -3 52
-3 0 190 0 191 -60 0 c-33 0 -60 -4 -60 -8 0 -14 -79 -132 -87 -132 -5 0 -26
31 -48 70 l-40 69 -57 1 -58 0 0 -190z"/>
<path d="M2978 1023 c7 -3 16 -2 19 1 4 3 -2 6 -13 5 -11 0 -14 -3 -6 -6z"/>
<path d="M1310 1000 c-9 -6 -10 -10 -3 -10 6 0 15 5 18 10 8 12 4 12 -15 0z"/>
<path d="M1404 876 c-10 -8 -16 -18 -11 -22 4 -4 7 -2 7 5 0 7 5 9 10 6 6 -3
10 -2 10 4 0 5 8 12 18 14 13 4 14 5 1 6 -8 0 -24 -5 -35 -13z"/>
<path d="M2935 850 c-3 -5 -1 -10 4 -10 6 0 11 5 11 10 0 6 -2 10 -4 10 -3 0
-8 -4 -11 -10z"/>
<path d="M2708 663 c7 -3 16 -2 19 1 4 3 -2 6 -13 5 -11 0 -14 -3 -6 -6z"/>
<path d="M2230 579 c0 -5 5 -7 10 -4 6 3 10 8 10 11 0 2 -4 4 -10 4 -5 0 -10
-5 -10 -11z"/>
<path d="M1055 3746 c-31 -31 -32 -51 -2 -71 18 -11 31 -12 60 -4 40 11 57 6
57 -16 0 -21 -36 -36 -65 -29 -30 7 -34 -11 -5 -26 34 -18 100 26 100 66 0 33
-31 46 -90 38 -27 -4 -50 -3 -50 2 0 19 16 32 43 36 34 4 36 22 3 26 -17 2
-34 -5 -51 -22z"/>
<path d="M3131 3713 c-24 -31 -45 -62 -48 -68 -5 -14 88 -86 101 -78 5 3 -8
20 -29 37 -34 29 -37 34 -26 54 12 23 16 23 63 -10 16 -11 29 -14 33 -9 3 6
-10 21 -29 33 -39 25 -40 26 -26 48 8 13 15 12 51 -8 22 -13 43 -21 47 -18 6
6 -13 22 -68 59 l-27 17 -42 -57z"/>
<path d="M3230 3760 c0 -5 6 -10 14 -10 8 0 18 5 21 10 3 6 -3 10 -14 10 -12
0 -21 -4 -21 -10z"/>
<path d="M915 3644 c-16 -14 -37 -29 -45 -34 -11 -6 -4 -21 35 -74 28 -36 54
-66 58 -66 5 0 28 16 53 36 50 41 50 67 0 29 -39 -30 -52 -31 -65 -7 -8 14 -4
22 22 44 39 33 28 50 -13 20 -35 -26 -46 -27 -54 -6 -4 10 5 24 24 41 29 24
39 43 23 43 -5 0 -21 -12 -38 -26z"/>
<path d="M3292 3602 c-16 -15 -32 -37 -36 -49 -10 -32 19 -81 59 -100 34 -16
36 -16 60 7 31 29 31 34 -1 55 -29 19 -43 13 -24 -11 11 -13 11 -17 1 -24 -35
-21 -76 20 -65 65 15 61 93 71 112 15 13 -36 32 -40 32 -6 0 30 -52 76 -85 76
-12 0 -36 -12 -53 -28z"/>
<path d="M777 3523 c-15 -18 -15 -21 8 -58 38 -61 32 -70 -25 -38 -47 26 -50
27 -67 11 -16 -17 -14 -21 42 -73 33 -30 63 -55 67 -55 16 0 7 21 -18 43 -14
12 -30 30 -36 41 -8 15 1 12 45 -13 43 -24 57 -28 65 -18 8 9 2 24 -19 55 -42
62 -36 73 15 23 30 -29 46 -39 51 -31 5 8 -15 35 -52 72 -57 56 -60 58 -76 41z"/>
<path d="M3447 3442 c-59 -59 -66 -72 -44 -72 16 0 117 101 117 118 0 22 -15
13 -73 -46z"/>
<path d="M3503 3365 c-29 -29 -34 -40 -28 -63 18 -74 93 -96 146 -43 37 38 39
82 4 116 -36 37 -79 33 -122 -10z m111 -11 c12 -31 6 -63 -16 -78 -31 -22 -75
-20 -88 3 -14 27 -13 35 11 65 24 30 83 37 93 10z"/>
<path d="M540 3244 c-18 -25 -30 -47 -28 -48 1 -1 31 -24 65 -49 34 -26 64
-47 66 -47 11 0 78 102 72 108 -4 4 -22 -11 -40 -32 -29 -34 -35 -38 -49 -27
-21 17 -20 27 4 61 11 16 16 31 11 34 -5 4 -19 -7 -31 -24 -12 -16 -28 -30
-36 -30 -24 0 -28 30 -7 53 31 34 36 47 19 47 -8 0 -29 -21 -46 -46z"/>
<path d="M3693 3134 c-78 -44 -89 -77 -13 -39 27 14 53 25 57 25 4 0 -13 -20
-37 -45 -56 -57 -47 -74 31 -51 62 19 62 19 54 6 -4 -6 -24 -19 -46 -30 -21
-11 -39 -27 -39 -35 0 -17 14 -12 93 33 60 35 62 38 48 61 -8 12 -18 13 -66 2
-31 -7 -58 -11 -61 -9 -2 3 14 22 37 42 40 37 48 68 19 73 -8 1 -43 -13 -77
-33z"/>
<path d="M423 3038 c-12 -6 -23 -18 -26 -27 -3 -9 -8 -24 -12 -33 -4 -10 1
-24 14 -37 18 -18 25 -20 44 -10 12 7 32 23 45 37 21 22 25 23 39 10 12 -12
13 -20 4 -37 -7 -11 -18 -21 -25 -21 -20 0 -40 -27 -26 -35 18 -11 50 6 65 35
20 39 19 63 -4 84 -25 22 -50 15 -85 -25 -28 -31 -46 -31 -46 2 0 12 10 23 25
29 24 9 32 24 18 33 -5 3 -18 0 -30 -5z"/>
<path d="M3808 2928 c-38 -17 -68 -37 -68 -45 0 -7 5 -13 10 -13 22 0 150 71
145 80 -9 14 -13 13 -87 -22z"/>
<path d="M330 2861 c0 -6 12 -16 27 -22 15 -6 41 -16 58 -24 54 -24 75 -28 75
-12 0 8 -22 24 -50 36 -65 28 -110 37 -110 22z"/>
<path d="M3845 2841 c-38 -16 -70 -33 -70 -37 0 -18 40 -104 49 -104 8 0 6 8
-10 67 -5 20 1 26 55 49 33 15 61 33 61 40 0 18 -3 18 -85 -15z"/>
<path d="M375 2743 c-117 -5 -122 -19 -37 -94 37 -32 70 -59 75 -59 12 0 8 22
-7 39 -9 12 -11 25 -4 49 7 25 14 32 33 32 18 0 25 5 25 20 0 11 -1 19 -2 18
-2 -1 -39 -4 -83 -5z m5 -45 c-1 -33 -16 -38 -40 -13 l-23 25 31 0 c19 0 32
-5 32 -12z"/>
<path d="M3893 2669 c-40 -13 -63 -25 -63 -34 0 -19 1 -19 89 8 41 13 77 29
79 35 5 17 -32 14 -105 -9z"/>
<path d="M4000 2581 c0 -26 -4 -29 -59 -41 -70 -15 -90 -25 -76 -39 7 -7 28
-6 65 4 77 20 88 19 92 -10 2 -14 7 -22 13 -17 8 5 7 27 -3 70 -14 64 -32 83
-32 33z"/>
<path d="M241 2561 c-6 -10 -13 -37 -17 -59 l-6 -40 64 -11 c36 -6 75 -11 87
-11 32 0 21 24 -12 28 -25 3 -27 7 -27 46 0 23 -5 47 -12 54 -19 19 -66 15
-77 -7z m62 -25 c11 -27 -4 -57 -27 -54 -36 5 -34 68 3 68 10 0 21 -6 24 -14z"/>
<path d="M3880 2407 c0 -9 10 -17 23 -19 18 -2 23 -10 25 -42 2 -28 -1 -42
-12 -48 -16 -9 -23 -43 -8 -36 4 2 40 20 80 42 90 48 95 68 20 90 -95 27 -128
30 -128 13z m135 -46 c5 -10 -24 -31 -43 -31 -5 0 -12 9 -15 20 -4 17 0 20 23
20 16 0 31 -4 35 -9z"/>
<path d="M196 2304 c-3 -9 -6 -37 -6 -64 l0 -47 81 -7 c44 -4 82 -6 84 -4 2 2
7 31 11 66 6 53 4 62 -9 62 -12 0 -17 -12 -19 -47 -3 -44 -5 -48 -28 -48 -23
0 -24 3 -21 48 1 26 -2 47 -7 47 -13 0 -22 -25 -22 -61 0 -22 -5 -29 -20 -29
-17 0 -20 7 -20 50 0 49 -12 66 -24 34z"/>
<path d="M3907 2204 c-16 -16 -5 -24 33 -24 28 0 40 -4 40 -15 0 -14 -48 -65
-61 -65 -4 0 -9 -9 -12 -20 -7 -26 -1 -25 40 6 l35 26 14 -21 c35 -50 88 -5
82 71 l-3 43 -80 3 c-45 1 -84 0 -88 -4z m143 -59 c0 -23 -6 -38 -16 -42 -20
-7 -34 13 -34 50 0 22 4 27 25 27 22 0 25 -4 25 -35z"/>
<path d="M216 2099 c-22 -17 -26 -28 -26 -70 l0 -49 85 0 85 0 0 48 c0 53 -5
64 -37 81 -33 17 -77 13 -107 -10z m108 -25 c9 -8 16 -26 16 -40 0 -23 -3 -24
-65 -24 l-65 0 6 28 c4 15 11 33 17 40 13 17 73 15 91 -4z"/>
<path d="M3894 1927 c-3 -8 -4 -36 -2 -63 3 -46 6 -50 41 -67 68 -34 117 -5
124 70 l5 50 -58 7 c-33 4 -69 10 -81 13 -15 3 -25 0 -29 -10z m105 -33 c29
-6 32 -10 29 -38 -3 -29 -6 -31 -46 -34 -52 -4 -72 10 -72 49 0 25 4 29 29 29
16 0 43 -3 60 -6z"/>
<path d="M263 1820 c-38 -23 -49 -54 -33 -95 15 -38 38 -54 81 -55 72 0 110
67 72 130 -26 44 -69 51 -120 20z m80 -19 c36 -14 41 -48 11 -78 -28 -28 -80
-29 -98 -1 -15 25 4 71 34 79 14 4 26 7 27 8 1 1 13 -3 26 -8z"/>
<path d="M3866 1732 c-14 -24 -33 -112 -25 -117 9 -6 29 35 29 60 0 19 13 25
39 18 14 -3 20 -11 17 -22 -15 -50 -17 -71 -7 -71 5 0 16 18 22 40 12 40 23
47 47 32 10 -7 9 -17 -2 -50 -10 -27 -11 -44 -5 -48 6 -3 12 -4 13 -3 10 12
34 115 28 120 -12 12 -152 48 -156 41z"/>
<path d="M353 1594 c-39 -33 -72 -61 -72 -64 -2 -19 25 -28 102 -35 76 -6 87
-5 87 9 0 10 -9 16 -23 16 -19 0 -26 8 -35 38 -10 31 -9 39 4 49 9 6 14 19 12
29 -2 13 -18 4 -75 -42z m35 -54 c3 -20 1 -22 -25 -15 -38 9 -40 13 -17 30 25
19 38 14 42 -15z"/>
<path d="M249 1508 c4 -17 12 -33 19 -36 9 -3 11 4 6 25 -8 35 -13 43 -23 43
-5 0 -6 -14 -2 -32z"/>
<path d="M3782 1467 c-26 -31 -33 -69 -17 -93 22 -34 53 -30 92 13 24 26 37
33 44 26 15 -15 2 -50 -21 -56 -26 -7 -26 -27 -1 -27 25 0 51 37 51 72 0 21
-7 32 -26 40 -24 11 -29 9 -61 -26 -35 -38 -63 -42 -63 -9 0 25 12 40 34 44
11 2 21 10 24 17 5 16 -42 16 -56 -1z"/>
<path d="M450 1415 c0 -8 9 -15 20 -15 23 0 43 -32 34 -55 -8 -19 -55 -45 -82
-45 -29 0 -45 25 -37 60 8 34 -8 41 -25 11 -7 -14 -7 -28 2 -48 17 -38 37 -52
75 -53 47 0 85 37 98 96 10 45 11 47 28 30 9 -10 17 -13 17 -8 0 19 -28 33
-53 27 -14 -4 -28 -2 -31 4 -11 16 -46 13 -46 -4z"/>
<path d="M3710 1317 c0 -7 5 -18 12 -25 10 -10 8 -20 -6 -47 -15 -28 -23 -34
-41 -29 -14 3 -24 0 -28 -9 -6 -16 10 -21 110 -33 87 -9 91 6 22 91 -52 64
-69 77 -69 52z m62 -84 c23 -21 23 -33 -1 -33 -39 0 -51 10 -38 31 14 23 16
23 39 2z"/>
<path d="M534 1227 c-90 -123 -85 -136 40 -111 85 17 109 35 53 42 -35 4 -64
49 -48 74 11 18 7 38 -7 38 -4 -1 -21 -20 -38 -43z m31 -58 c8 -24 8 -24 -27
-33 -32 -7 -34 -4 -12 29 20 30 31 32 39 4z"/>
<path d="M3573 1096 c-39 -55 -30 -70 12 -21 l30 35 52 -40 c55 -42 73 -49 73
-26 0 13 -110 96 -127 96 -5 0 -23 -20 -40 -44z"/>
<path d="M618 1047 c-50 -37 -74 -68 -50 -67 13 1 125 85 130 98 7 23 -23 12
-80 -31z"/>
<path d="M710 985 c0 -10 10 -15 30 -15 57 0 53 -69 -5 -97 -33 -16 -37 -16
-52 -1 -8 9 -16 26 -17 39 -2 36 -26 36 -26 0 0 -71 86 -97 141 -42 34 35 37
68 8 105 -23 29 -79 37 -79 11z"/>
<path d="M3482 977 c-9 -10 -2 -31 29 -90 22 -43 45 -75 50 -72 15 10 10 29
-20 77 -16 25 -27 49 -24 52 3 2 30 -6 60 -20 64 -28 73 -29 73 -10 0 8 -30
26 -72 43 -40 15 -76 29 -79 31 -3 1 -11 -3 -17 -11z"/>
<path d="M3407 894 c-4 -4 -4 -18 -1 -31 8 -29 -26 -58 -66 -58 -46 0 -28 -20
52 -54 103 -45 109 -38 67 68 -31 78 -38 89 -52 75z m43 -126 c0 -13 -24 -8
-45 8 -20 15 -20 15 0 30 17 13 20 12 32 -8 7 -13 12 -26 13 -30z"/>
<path d="M819 821 c-73 -73 5 -180 96 -131 35 19 55 66 43 102 -22 63 -91 77
-139 29z m99 -10 c23 -14 10 -72 -20 -94 -23 -17 -31 -19 -53 -9 -19 9 -25 19
-25 42 0 52 57 87 98 61z"/>
<path d="M3217 726 c-28 -25 -37 -42 -37 -66 0 -41 47 -90 86 -90 34 0 97 47
90 66 -7 18 -89 123 -97 123 -3 1 -22 -14 -42 -33z m76 -54 c25 -34 28 -44 17
-57 -30 -36 -100 1 -100 53 0 24 27 54 44 49 5 -2 22 -22 39 -45z"/>
<path d="M1017 702 c-23 -25 -21 -47 8 -90 14 -21 21 -40 16 -45 -13 -13 -51
11 -51 32 0 11 -7 21 -15 25 -24 9 -18 -37 8 -62 30 -28 73 -29 87 -1 10 17 7
28 -15 61 -26 39 -27 68 -3 68 23 0 41 -18 43 -42 2 -25 28 -32 33 -8 3 21
-39 67 -69 75 -17 4 -30 0 -42 -13z"/>
<path d="M3029 597 c-38 -25 -47 -55 -28 -98 24 -59 84 -76 133 -38 38 30 37
88 -4 129 -35 36 -56 38 -101 7z m81 -27 c25 -25 27 -85 4 -94 -33 -13 -62 -6
-78 19 -43 66 19 130 74 75z"/>
<path d="M1176 594 c-24 -24 -19 -56 14 -87 37 -35 38 -47 5 -47 -18 0 -28 7
-35 25 -11 29 -30 34 -30 8 1 -29 25 -52 60 -60 61 -12 73 44 20 97 -27 27
-26 50 3 50 28 0 47 -17 47 -42 0 -10 7 -18 15 -18 26 0 17 37 -16 64 -35 30
-61 33 -83 10z"/>
<path d="M1340 446 c0 -70 3 -95 14 -99 8 -3 40 21 77 59 62 62 72 90 24 64
-34 -18 -85 3 -85 35 0 13 -7 25 -15 29 -13 4 -15 -9 -15 -88z m60 -6 c13 -8
12 -13 -7 -32 l-23 -22 0 32 c0 34 5 38 30 22z"/>
<path d="M2894 508 c4 -13 10 -31 13 -40 7 -25 -30 -24 -71 1 -48 30 -69 10
-23 -21 29 -20 33 -27 25 -42 -16 -28 6 -66 37 -66 29 0 108 37 103 49 -44
105 -63 141 -76 141 -10 0 -12 -6 -8 -22z m41 -99 c8 -25 -8 -39 -47 -39 -34
0 -37 23 -6 44 30 22 45 20 53 -5z"/>
</g>
</svg>
